<?xml version="1.0" standalone="no"?>
<!DOCTYPE svg PUBLIC "-//W3C//DTD SVG 1.1//EN" "http://www.w3.org/Graphics/SVG/1.1/DTD/svg11.dtd" >
<svg xmlns="http://www.w3.org/2000/svg">
<metadata>Generated by IcoMoon</metadata>
<defs>
<font id="seatsdesigner" horiz-adv-x="1024">
<font-face units-per-em="1024" ascent="970.24" descent="-53.76" />
<missing-glyph horiz-adv-x="1024" />
<glyph unicode="&#x20;" horiz-adv-x="512" d="" />
<glyph unicode="&#xe900;" glyph-name="saved" d="M512 919.040c-259.973 0-471.040-211.067-471.040-471.040s211.067-471.040 471.040-471.040c259.973 0 471.040 211.067 471.040 471.040s-211.067 471.040-471.040 471.040zM512 850.346c222.061 0 402.346-180.285 402.346-402.346s-180.285-402.346-402.346-402.346c-222.061 0-402.346 180.285-402.346 402.346s180.285 402.346 402.346 402.346zM474.067 252.613l-2.134-2.376c-7.496-8.344-20.361-9.032-28.705-1.532l-183.103 164.528c-8.344 7.496-9.032 20.357-1.532 28.705l27.169 30.237c7.496 8.344 20.361 9.032 28.705 1.532l135.639-121.881 251.97 280.42c7.762 8.634 21.074 9.347 29.708 1.585l31.293-28.119c8.634-7.758 9.347-21.070 1.585-29.704l-290.595-323.396z" />
<glyph unicode="&#xe901;" glyph-name="saving" d="M687.030 888.336c173.392-69.362 296.010-239.1 296.010-437.252 0-259.973-211.067-471.040-471.040-471.040s-471.040 211.067-471.040 471.040c0 198.152 122.618 367.89 296.010 437.252l25.526-63.767c-148.107-59.245-252.842-204.231-252.842-373.486 0-222.061 180.285-402.346 402.346-402.346s402.346 180.285 402.346 402.346c0 169.255-104.735 314.241-252.842 373.486l25.526 63.767z" />
<glyph unicode="&#xe902;" glyph-name="read-only" d="M512 919.040c-259.973 0-471.040-211.067-471.040-471.040s211.067-471.040 471.040-471.040c259.973 0 471.040 211.067 471.040 471.040s-211.067 471.040-471.040 471.040zM512 850.346c222.061 0 402.346-180.285 402.346-402.346s-180.285-402.346-402.346-402.346c-222.061 0-402.346 180.285-402.346 402.346s180.285 402.346 402.346 402.346z" />
<glyph unicode="&#xe903;" glyph-name="publish" d="M512 919.040c-259.973 0-471.040-211.067-471.040-471.040s211.067-471.040 471.040-471.040c259.973 0 471.040 211.067 471.040 471.040s-211.067 471.040-471.040 471.040zM512 828.928c210.239 0 380.928-170.689 380.928-380.928s-170.689-380.928-380.928-380.928c-210.239 0-380.928 170.689-380.928 380.928s170.689 380.928 380.928 380.928zM564.818 208.384h-105.636v305.922l-119.124-107.463-62.501 69.28 234.443 211.493 234.443-211.493-62.501-69.28-119.124 107.463v-305.922z" />
<glyph unicode="&#xe904;" glyph-name="undo" d="M546.943 902.914c175.653-0.836 344.883-109.036 418.64-269.459 60.412-131.396 54.481-291.316-16.79-418.365-59.195-105.529-161.649-186.384-277.557-219.144-9.29-2.626-19.603-3.916-27.935 0.594-13.652 7.385-19.087 26.69-10.801 40.206 8.172 13.324 28.094 15.401 45.031 21.25 156.721 54.145 272.302 210.711 272.74 381.653 0.373 146.297-84.566 289.837-216.273 359.367-120.107 63.402-272.208 60.961-390.631-7.483-48.39-27.963-90.886-66.265-123.904-110.838 0 0-1.389-2.793-6.656-6.463-21.545-15-59.691 13.341-38.466 41.89 97.649 131.351 235.418 186.032 369.324 186.794 1.094 0 2.183 0.004 3.277 0zM23.683 522.564l78.766 316.264 234.361-225.833-313.127-90.431z" />
<glyph unicode="&#xe905;" glyph-name="redo" d="M483.676 902.914c-175.653-0.836-344.883-109.036-418.64-269.459-60.412-131.396-54.481-291.316 16.79-418.365 59.195-105.529 161.649-186.384 277.557-219.144 9.29-2.626 19.603-3.916 27.935 0.594 13.652 7.385 19.087 26.69 10.801 40.206-8.172 13.324-28.094 15.401-45.031 21.25-156.721 54.145-272.302 210.711-272.74 381.653-0.373 146.297 84.566 289.837 216.273 359.367 120.103 63.402 272.208 60.961 390.631-7.483 48.39-27.963 90.886-66.265 123.904-110.838 0 0 1.389-2.793 6.656-6.463 21.545-15 59.691 13.341 38.466 41.89-97.653 131.351-235.418 186.032-369.324 186.794-1.094 0-2.183 0.004-3.277 0zM1006.936 522.564l-78.77 316.264-234.357-225.833 313.127-90.431z" />
<glyph unicode="&#xe906;" glyph-name="snapping" d="M185.872 718.541c0 15-12.182 27.177-27.181 27.177h-108.708c-15 0-27.177-12.177-27.177-27.177s12.177-27.177 27.177-27.177h108.708c15 0 27.181 12.177 27.181 27.177zM457.646 718.541c0 15-12.177 27.177-27.177 27.177h-108.712c-15 0-27.177-12.177-27.177-27.177s12.177-27.177 27.177-27.177h108.712c15 0 27.177 12.177 27.177 27.177zM729.42 718.541c0 15-12.177 27.177-27.177 27.177h-108.712c-15 0-27.177-12.177-27.177-27.177s12.177-27.177 27.177-27.177h108.712c15 0 27.177 12.177 27.177 27.177zM1001.193 718.541c0 15-12.177 27.177-27.177 27.177h-108.708c-15 0-27.181-12.177-27.181-27.177s12.182-27.177 27.181-27.177h108.708c15 0 27.177 12.177 27.177 27.177zM185.872 177.459c0 15-12.182 27.177-27.181 27.177h-108.708c-15 0-27.177-12.177-27.177-27.177s12.177-27.177 27.177-27.177h108.708c15 0 27.181 12.177 27.181 27.177zM457.646 177.459c0 15-12.177 27.177-27.177 27.177h-108.712c-15 0-27.177-12.177-27.177-27.177s12.177-27.177 27.177-27.177h108.712c15 0 27.177 12.177 27.177 27.177zM729.42 177.459c0 15-12.177 27.177-27.177 27.177h-108.712c-15 0-27.177-12.177-27.177-27.177s12.177-27.177 27.177-27.177h108.712c15 0 27.177 12.177 27.177 27.177zM1001.193 177.459c0 15-12.177 27.177-27.177 27.177h-108.708c-15 0-27.181-12.177-27.181-27.177s12.182-27.177 27.181-27.177h108.708c15 0 27.177 12.177 27.177 27.177zM782.541 774.128c15 0 27.177 12.182 27.177 27.181v108.708c0 15-12.177 27.177-27.177 27.177s-27.177-12.177-27.177-27.177v-108.708c0-15 12.177-27.181 27.177-27.181zM782.541 502.354c15 0 27.177 12.177 27.177 27.177v108.712c0 15-12.177 27.177-27.177 27.177s-27.177-12.177-27.177-27.177v-108.712c0-15 12.177-27.177 27.177-27.177zM782.541 230.58c15 0 27.177 12.177 27.177 27.177v108.712c0 15-12.177 27.177-27.177 27.177s-27.177-12.177-27.177-27.177v-108.712c0-15 12.177-27.177 27.177-27.177zM782.541-41.193c15 0 27.177 12.177 27.177 27.177v108.708c0 15-12.177 27.181-27.177 27.181s-27.177-12.182-27.177-27.181v-108.708c0-15 12.177-27.177 27.177-27.177zM241.459 774.128c15 0 27.177 12.182 27.177 27.181v108.708c0 15-12.177 27.177-27.177 27.177s-27.177-12.177-27.177-27.177v-108.708c0-15 12.177-27.181 27.177-27.181zM241.459 502.354c15 0 27.177 12.177 27.177 27.177v108.712c0 15-12.177 27.177-27.177 27.177s-27.177-12.177-27.177-27.177v-108.712c0-15 12.177-27.177 27.177-27.177zM241.459 230.58c15 0 27.177 12.177 27.177 27.177v108.712c0 15-12.177 27.177-27.177 27.177s-27.177-12.177-27.177-27.177v-108.712c0-15 12.177-27.177 27.177-27.177zM241.459-41.193c15 0 27.177 12.177 27.177 27.177v108.708c0 15-12.177 27.181-27.177 27.181s-27.177-12.182-27.177-27.181v-108.708c0-15 12.177-27.177 27.177-27.177zM706.068 583.848c0 32.133-26.087 58.221-58.221 58.221h-271.696c-32.133 0-58.221-26.087-58.221-58.221v-271.696c0-32.133 26.087-58.221 58.221-58.221h271.696c32.133 0 58.221 26.087 58.221 58.221v271.696z" />
<glyph unicode="&#xe907;" glyph-name="x" d="M503.808 562.188l-245.506 245.502c-22.057 22.061-57.872 22.061-79.929 0l-34.255-34.255c-22.061-22.057-22.061-57.872 0-79.929l245.502-245.506-245.502-245.506c-22.061-22.057-22.061-57.872 0-79.929l34.255-34.255c22.057-22.061 57.872-22.061 79.929 0l245.506 245.502 245.506-245.502c22.057-22.061 57.872-22.061 79.929 0l34.255 34.255c22.061 22.057 22.061 57.872 0 79.929l-245.502 245.506 245.502 245.506c22.061 22.057 22.061 57.872 0 79.929l-34.255 34.255c-22.057 22.061-57.872 22.061-79.929 0l-245.506-245.502z" />
<glyph unicode="&#xe908;" glyph-name="close" d="M512 919.040c-259.973 0-471.040-211.067-471.040-471.040s211.067-471.040 471.040-471.040c259.973 0 471.040 211.067 471.040 471.040s-211.067 471.040-471.040 471.040zM512 860.512c227.672 0 412.512-184.84 412.512-412.512s-184.84-412.512-412.512-412.512c-227.672 0-412.512 184.84-412.512 412.512s184.84 412.512 412.512 412.512zM512.279 487.6c54.043 52.933 108.45 105.591 161.964 159.105 5.366 4.977 11.85 7.533 19.194 7.533 20.144-1.507 31.494-26.386 18.579-42.582-52.023-56.066-105.882-110.371-160.416-163.934 52.933-54.043 105.591-108.45 159.105-161.964 18.567-20.013-12.571-55.697-35.049-37.773-56.066 52.023-110.371 105.886-163.934 160.416-54.043-52.933-108.45-105.591-161.964-159.105-19.456-18.051-58.114 9.54-37.773 35.049 52.023 56.066 105.886 110.371 160.416 163.934-52.933 54.043-105.591 108.45-159.105 161.964-14.918 16.077-3.727 45.711 21.119 43.852 5.296-0.799 9.74-2.736 13.93-6.078 56.066-52.023 110.371-105.882 163.934-160.416z" />
<glyph unicode="&#xe909;" glyph-name="table, table-round" d="M198.189 322.195c-6.136 15.282-11.19 31.113-15.065 47.399-19.517-7.504-41.345-8.425-60.748-0.492-36.671 14.987-59.359 57.934-51.184 96.608 8.036 38.023 44.409 67.105 82.78 67.465 10.375 0.033 20.292-1.946 29.45-5.517 3.858 15.938 8.843 31.437 14.873 46.408-13.693 5.030-28.189 7.84-42.897 7.983-1.155 0-2.31-0.004-3.461-0.025-80.548-1.786-140.935-79.229-130.036-153.596 8.045-54.89 53.555-102.13 108.089-112.234 24.314-4.506 47.473-1.847 68.198 6.001zM245.666 656.085c10.187 13.013 21.303 25.26 33.251 36.647-12.734 10.572-22.557 24.613-27.308 40.522-15.647 52.392 28.926 108.95 80.839 109.502 0.86 0.004 1.72-0.004 2.58-0.020 37.507-0.963 71.266-28.103 80.605-63.357 0.606-2.286 1.098-4.579 1.483-6.869 15.507 4.534 31.47 7.983 47.804 10.265-0.721 3.875-1.622 7.717-2.703 11.518-15.786 55.362-70.668 96.903-128.516 97.337-1.081 0-2.159-0.008-3.24-0.025-53.862-1.225-103.67-36.901-122.45-86.331-19.472-51.245-3.486-113.467 37.655-149.189zM559.079 782.774c16.396-2.29 32.416-5.759 47.972-10.314 7.688 38.703 44.012 70.001 83.46 70.296 0.516 0 1.032 0 1.548-0.008 45.896-0.77 83.399-40.882 83.849-84.431 0.262-25.526-12.354-49.185-31.248-65.184 12.112-11.502 23.372-23.884 33.677-37.052 41.931 36.266 57.27 99.394 37.073 150.696-19.464 49.435-70.545 84.287-123.494 84.849-1.077 0.004-2.159 0-3.236-0.012-59.412-1.163-112.783-43.983-127.558-99.721-0.803-3.023-1.483-6.062-2.044-9.118zM825.659 574.173c6.042-14.979 11.035-30.495 14.901-46.449 9.015 3.437 18.604 5.358 28.348 5.452 51.683 0.164 91.349-48.976 84.984-96.6-6.971-52.126-66.404-85.389-113.426-68.678-3.879-15.95-8.897-31.457-14.95-46.432 6.304-2.269 12.792-4.047 19.411-5.272 95.146-17.633 172.601 74.445 156.033 157.987-11.985 60.42-69.403 107.282-130.626 107.868-1.155 0-2.306-0.004-3.461-0.025-14.488-0.319-28.328-3.088-41.214-7.852zM777.732 239.149c-10.035-12.743-20.963-24.752-32.698-35.926 13.562-11.26 23.79-26.423 28.201-43.504 10.154-39.35-11.956-83.546-48.693-99.492-36.97-16.044-84.431-1.294-105.857 32.764-4.129 6.562-7.389 13.672-9.605 21.103-0.934 3.125-1.651 6.263-2.171 9.404-15.262-4.465-30.974-7.881-47.047-10.162 6.038-30.802 22.282-59.63 46.768-79.327 52.838-42.508 136.528-35.856 182.059 12.861 31.445 33.645 43.61 84.025 30.999 128.266-7.127 24.99-22.221 47.165-41.955 64.012zM464.175 113.332c-16.11 2.286-31.855 5.71-47.153 10.183-7.672-39.469-45.253-70.812-85.082-70.263-43.655 0.598-82.579 39.645-83.821 82.899-0.741 25.981 11.94 50.328 31.24 66.699-11.932 11.325-23.040 23.515-33.223 36.467-20.345-17.453-35.602-40.612-42.484-66.576-16.454-62.083 18.219-132.104 76.345-157.344 45.838-19.902 101.474-11.407 139.272 20.173 23.605 19.718 39.080 47.833 44.904 77.763zM512 716.104c147.968 0 268.104-120.136 268.104-268.104s-120.136-268.104-268.104-268.104c-147.968 0-268.104 120.136-268.104 268.104s120.136 268.104 268.104 268.104zM512 642.376c-107.278 0-194.376-87.097-194.376-194.376s87.097-194.376 194.376-194.376c107.278 0 194.376 87.097 194.376 194.376s-87.097 194.376-194.376 194.376z" />
<glyph unicode="&#xe90a;" glyph-name="table-rectangle" d="M139.071 325.624v45.564c-5.235-1.155-10.596-1.753-15.999-1.716-37.409 0.233-72.094 30.654-77.251 67.502-6.341 45.285 32.793 89.133 77.251 89.555 0.68 0.004 1.364 0 2.048-0.012 4.78-0.106 9.445-0.672 13.951-1.647v45.617c-4.85 0.68-9.753 1.053-14.684 1.098-1.065 0.004-2.13-0.004-3.191-0.020-74.26-1.647-129.933-73.044-119.886-141.607 7.414-50.606 49.377-94.159 99.652-103.473 13.148-2.437 25.932-2.601 38.109-0.86zM224.068 678.142h45.765c-0.455 1.982-0.827 3.985-1.11 6.009-6.373 45.507 33.059 89.133 77.255 89.555 0.684 0 1.364-0.004 2.048-0.012 47.53-1.053 82.76-46.977 76.087-90.509-0.258-1.696-0.582-3.379-0.958-5.042h44.892c2.359 13.566 2.384 27.492-0.332 41.173-11.047 55.706-63.988 98.91-120.426 99.447-1.065 0.004-2.13-0.004-3.191-0.020-73.896-1.642-129.384-72.344-120.029-140.599zM553.636 678.142h45.765c-0.459 1.982-0.827 3.985-1.114 6.009-6.328 45.203 32.977 89.133 77.259 89.555 0.68 0 1.364-0.004 2.048-0.012 47.53-1.053 82.76-46.952 76.087-90.509-0.262-1.696-0.582-3.379-0.963-5.042h44.896c2.359 13.566 2.38 27.492-0.332 41.173-11.047 55.706-63.988 98.91-120.431 99.447-1.061 0.004-2.126-0.004-3.191-0.020-73.896-1.642-129.384-72.344-120.025-140.599zM883.47 570.331v-45.933c5.337 1.339 10.838 2.077 16.425 2.13 0.684 0.004 1.364 0 2.048-0.012 47.591-1.065 82.76-46.989 76.095-90.505-5.702-37.216-40.874-66.773-78.143-66.54-5.566 0.033-11.071 0.737-16.425 2.028v-45.933c85.090-11.661 153.113 71.221 138.17 146.571-11.047 55.706-63.988 98.91-120.431 99.447-1.065 0.004-2.126-0.004-3.191-0.020-4.936-0.111-9.789-0.528-14.549-1.233zM798.446 217.858h-46.236c2.359-9.441 2.961-19.292 1.47-29.024-5.698-37.208-40.878-66.777-78.135-66.54-37.548 0.242-72.36 30.892-77.324 68.002-1.257 9.38-0.557 18.69 1.737 27.562h-45.801c-1.892-11.534-2.097-23.347-0.377-35.078 7.414-50.606 49.373-94.155 99.652-103.473 85.029-15.757 154.73 63.521 145.015 138.551zM468.877 217.858h-46.24c2.261-8.954 2.925-18.285 1.683-27.562-5.026-37.577-40.026-67.764-77.324-68.002-37.63-0.242-72.786 30.044-78.205 67.023-1.425 9.708-0.75 19.362 1.622 28.541h-45.826c-1.892-11.534-2.097-23.347-0.377-35.078 7.414-50.606 49.377-94.155 99.652-103.473 85.029-15.757 154.73 63.521 145.015 138.551zM796.18 623.563c18.059-0.344 34.3-15.978 34.656-34.656 0.594-93.938 0.594-187.875 0-281.813-0.344-18.072-15.733-34.296-34.656-34.656-189.936-1.204-379.884-1.204-569.819 0-18.059 0.344-34.3 15.978-34.656 34.656-0.594 93.938-0.594 187.875 0 281.813 0.344 18.072 15.733 34.296 34.656 34.656 189.936 1.204 379.884 1.204 569.819 0zM252.199 554.074v-212.148h518.148v212.148h-518.148z" />
<glyph unicode="&#xe90b;" glyph-name="booth" d="M955.597 759.296v-622.592c0-73.019-59.281-132.301-132.301-132.301h-622.592c-73.019 0-132.301 59.281-132.301 132.301v622.592c0 73.019 59.281 132.301 132.301 132.301h622.592c73.019 0 132.301-59.281 132.301-132.301zM901.12 759.296c0 42.951-34.873 77.824-77.824 77.824h-622.592c-42.951 0-77.824-34.873-77.824-77.824v-622.592c0-42.951 34.873-77.824 77.824-77.824h622.592c42.951 0 77.824 34.873 77.824 77.824v622.592zM182.211 743.031l69.513-69.509c9.593-9.593 25.166-9.593 34.755 0 9.593 9.589 9.593 25.162 0 34.755l-69.509 69.513c-9.593 9.589-25.166 9.589-34.759 0-9.589-9.593-9.589-25.166 0-34.759zM321.237 604.008l69.509-69.509c9.593-9.593 25.166-9.593 34.755 0 9.593 9.589 9.593 25.162 0 34.755l-69.509 69.509c-9.593 9.593-25.166 9.593-34.755 0-9.593-9.589-9.593-25.162 0-34.755zM460.259 464.986l69.509-69.509c9.593-9.593 25.166-9.593 34.755 0 9.593 9.589 9.593 25.162 0 34.755l-69.509 69.509c-9.593 9.593-25.166 9.593-34.755 0-9.593-9.589-9.593-25.162 0-34.755zM599.282 325.964l69.509-69.513c9.593-9.589 25.166-9.589 34.759 0 9.589 9.593 9.589 25.166 0 34.759l-69.513 69.509c-9.593 9.593-25.166 9.593-34.755 0-9.593-9.589-9.593-25.162 0-34.755zM738.304 186.941l68.727-68.731c9.593-9.589 25.166-9.589 34.759 0 9.589 9.593 9.589 25.166 0 34.759l-68.731 68.727c-9.589 9.593-25.166 9.593-34.755 0-9.593-9.589-9.593-25.166 0-34.755zM807.031 777.789l-69.509-69.513c-9.593-9.593-9.593-25.166 0-34.755 9.589-9.593 25.162-9.593 34.755 0l69.513 69.509c9.589 9.593 9.589 25.166 0 34.759-9.593 9.589-25.166 9.589-34.759 0zM668.008 638.763l-69.509-69.509c-9.593-9.593-9.593-25.166 0-34.755 9.589-9.593 25.162-9.593 34.755 0l69.509 69.509c9.593 9.593 9.593 25.166 0 34.755-9.589 9.593-25.162 9.593-34.755 0zM528.986 499.741l-69.509-69.509c-9.593-9.593-9.593-25.166 0-34.755 9.589-9.593 25.162-9.593 34.755 0l69.509 69.509c9.593 9.593 9.593 25.166 0 34.755-9.589 9.593-25.162 9.593-34.755 0zM389.964 360.718l-69.513-69.509c-9.589-9.593-9.589-25.166 0-34.759 9.593-9.589 25.166-9.589 34.759 0l69.509 69.513c9.593 9.593 9.593 25.166 0 34.755-9.589 9.593-25.162 9.593-34.755 0zM250.941 221.696l-68.731-68.727c-9.589-9.593-9.589-25.166 0-34.759 9.593-9.589 25.166-9.589 34.759 0l68.727 68.731c9.593 9.589 9.593 25.166 0 34.755-9.589 9.593-25.166 9.593-34.755 0z" />
<glyph unicode="&#xe90c;" glyph-name="check" d="M446.206 127.218l0.074 0.066 484.458 539.156c10.781 11.997 9.794 30.491-2.208 41.271l-43.479 39.072c-11.997 10.781-30.495 9.794-41.275-2.208l-428.405-476.77-241.725 217.207c-12.034 10.813-30.589 9.822-41.402-2.212l-39.191-43.618c-10.818-12.034-9.826-30.585 2.212-41.402l306.872-275.739c12.038-10.818 30.589-9.826 41.402 2.212l2.666 2.966z" />
<glyph unicode="&#xe90d;" glyph-name="ga-ellipse" d="M983.040 448c0-259.973-211.067-471.040-471.040-471.040s-471.040 211.067-471.040 471.040c0 259.973 211.067 471.040 471.040 471.040s471.040-211.067 471.040-471.040zM925.696 448c0 228.323-185.373 413.696-413.696 413.696s-413.696-185.373-413.696-413.696c0-228.323 185.373-413.696 413.696-413.696s413.696 185.373 413.696 413.696zM581.751 341.418h-135.75l-25.502-75.751h-80.499l131.498 368.501h87.003l130.499-368.501h-83.501l-23.749 75.751zM560.251 404.918l-46.002 144.998-47.497-144.998h93.499z" />
<glyph unicode="&#xe90e;" glyph-name="split" d="M448.844 542.663v-323.912c0-15.241-6.058-29.86-16.835-40.636-10.777-10.781-25.395-16.835-40.641-16.835h-216.904c-15.245 0-29.864 6.054-40.641 16.835-10.781 10.777-16.835 25.395-16.835 40.636v323.912c0 15.245 6.054 29.864 16.835 40.641 10.777 10.781 25.395 16.835 40.641 16.835h216.904c15.245 0 29.864-6.054 40.641-16.835 10.777-10.777 16.835-25.395 16.835-40.641zM190.718 235.008h184.398v291.402h-184.398v-291.402zM911.106 718.209v-323.912c0-15.245-6.054-29.864-16.835-40.641-10.777-10.781-25.395-16.835-40.641-16.835h-216.904c-15.245 0-29.864 6.054-40.641 16.835-10.777 10.777-16.835 25.395-16.835 40.641v323.912c0 15.241 6.058 29.86 16.835 40.636 10.777 10.781 25.395 16.835 40.641 16.835h216.904c15.245 0 29.864-6.054 40.641-16.835 10.781-10.777 16.835-25.395 16.835-40.636zM652.98 410.55h184.398v291.402h-184.398v-291.402zM420.917 772.723l-83.059 105.054c-7.713 9.753-21.889 11.411-31.642 3.699-9.757-7.709-11.411-21.889-3.703-31.642l83.059-105.054c7.713-9.753 21.893-11.411 31.646-3.699s11.411 21.889 3.699 31.642zM395.829 713.036l-95.511 8.491c-12.382 1.102-23.331-8.061-24.433-20.443-1.102-12.386 8.061-23.335 20.443-24.437l95.511-8.491c12.382-1.102 23.331 8.061 24.433 20.447 1.102 12.382-8.061 23.331-20.443 24.433zM480.993 782.819l-8.995 117.133c-0.95 12.399-11.788 21.688-24.187 20.738-12.394-0.95-21.688-11.788-20.738-24.187l8.995-117.133c0.954-12.399 11.792-21.692 24.187-20.738 12.399 0.95 21.692 11.788 20.738 24.187zM637.096 160.739l83.059-105.050c7.713-9.753 21.893-11.411 31.646-3.699 9.753 7.709 11.411 21.889 3.699 31.642l-83.059 105.054c-7.713 9.753-21.889 11.411-31.646 3.699-9.753-7.713-11.407-21.889-3.699-31.646zM662.188 220.43l95.506-8.491c12.386-1.102 23.335 8.061 24.433 20.443 1.102 12.386-8.057 23.335-20.443 24.437l-95.506 8.491c-12.386 1.098-23.335-8.061-24.437-20.447-1.102-12.382 8.061-23.331 20.447-24.433zM577.020 150.647l8.995-117.133c0.954-12.399 11.792-21.692 24.187-20.738 12.399 0.95 21.688 11.788 20.738 24.187l-8.995 117.133c-0.954 12.399-11.788 21.688-24.187 20.738s-21.688-11.788-20.738-24.187z" />
<glyph unicode="&#xe90f;" glyph-name="section, section-polygon" d="M920.445 713.232c-43.512-152.146-148.554-519.451-188.076-657.502-3.793-13.263-12.898-24.371-25.162-30.7-12.259-6.324-26.591-7.303-39.6-2.703-38.687 13.386-96.616 28.475-161.214 28.475-63.345 0-119.112-14.508-156.701-27.742-13.115-4.698-27.595-3.723-39.961 2.699-12.362 6.418-21.492 17.703-25.19 31.134-38.466 139.698-140.030 508.563-181.531 659.37-11.186 40.632 7.393 83.575 44.671 103.24 70.996 36.925 197.935 87.773 358.711 87.773 161.804 0 294.216-51.999 368.452-89.321 38.302-19.497 57.422-63.398 45.601-104.722zM337.207 78.549c41.898 14.18 101.712 28.783 169.185 28.783 68.624 0 130.523-15.143 173.511-29.483 40.874 142.782 143.356 501.133 186.196 650.928 4.366 15.278-2.675 31.506-16.888 38.797-69.173 34.746-192.328 83.173-342.819 83.173-148.951 0-266.584-47.067-332.587-81.375-13.64-7.34-20.414-23.146-16.294-38.105v-0.008c40.858-148.472 139.936-508.301 179.696-652.71zM513.63 349.008c18.166 0 32.915 1.999 44.249 5.997 21.5 7.668 32.252 21.918 32.252 42.754 0 12.165-5.333 21.582-15.999 28.246-10.67 6.5-27.419 12.251-50.254 17.252l-38.998 8.749c-38.334 8.667-64.831 18.084-79.499 28.25-24.834 17.002-37.249 43.586-37.249 79.749 0 33.001 11.997 60.416 36 82.252 23.998 21.832 59.249 32.748 105.751 32.748 38.83 0 71.954-10.289 99.373-30.872 27.419-20.586 41.791-50.459 43.127-89.625h-74.002c-1.331 22.163-10.998 37.917-29 47.247-12.001 6.169-26.915 9.249-44.749 9.249-19.833 0-35.668-3.998-47.501-11.997s-17.748-19.169-17.748-33.501c0-13.165 5.833-22.999 17.498-29.499 7.5-4.334 23.499-9.417 48.001-15.249l63.5-15.249c27.832-6.668 48.833-15.585 63.001-26.751 22-17.334 32.997-42.418 32.997-75.252 0-33.665-12.874-61.624-38.625-83.874-25.747-22.249-62.124-33.374-109.126-33.374-47.997 0-85.75 10.957-113.246 32.874-27.501 21.918-41.251 52.040-41.251 90.374h73.499c2.335-16.835 6.918-29.417 13.75-37.749 12.501-15.167 33.915-22.749 64.25-22.749z" />
<glyph unicode="&#xe910;" glyph-name="select-cursor" d="M283.521 877.953c17.215-0.401 29.86-15.946 43.004-29.078 154.235-154.116 308.974-308.494 463.532-462.754 0 0 5.009-5.681 6.177-11.534 2.585-12.927-8.069-26.108-22.082-26.939l-191.365-0.070c0 0 118.28-237.507 118.28-237.507 7.361-16.31 0.668-36.778-15.245-45.482-27.161-13.939-54.649-27.23-81.977-40.841-16.355-7.889-37.868-1.196-46.494 15.577l-123.167 247.3-148.058-145.51c0 0-9.728-7.754-19.436-6.16-10.428 1.708-18.252 11.383-18.883 22.245 0.152 228.622 0.352 457.273 0.389 686.047 0.025 2.793 0.119 3.076 0.299 4.448 2.208 16.74 16.462 30.364 35.025 30.257zM293.249 816.226c-0.066-189.424-0.201-378.843-0.324-568.267l-0.025-37.016 131.83 129.561c0 0 11.428 8.671 22.098 5.562 5.923-1.729 10.691-6.066 13.857-11.583l132.366-265.773 62.73 31.24-129.54 260.1c-6.16 14.475 3.871 31.588 20.156 32.571l173.306 0.061c-141.668 141.394-283.296 282.73-425.026 424.321 0 0-1.43 4.19-1.43-0.778z" />
<glyph unicode="&#xe911;" glyph-name="delete" d="M289.587 803.836h-184.205c-10.559 0-20.537-17.547-20.537-20.984 0-3.396 9.978-23.306 20.537-23.306h53.428l59.228-710.685c3.535-42.459 39.031-75.117 81.633-75.117h424.657c42.602 0 78.098 32.657 81.633 75.117l59.228 710.685h53.551c10.531 0 20.414 19.911 20.414 23.306 0 3.437-9.884 20.984-20.414 20.984h-184.328l-76.022 92.733c-11.203 13.664-27.943 21.59-45.613 21.59h-201.556c-17.67 0-34.41-7.926-45.613-21.59l-76.022-92.733zM819.913 758.78l-58.851-706.175c-1.589-19.108-17.564-33.804-36.733-33.804-0.004 0-424.497 0-424.653 0-19.173 0-35.148 14.696-36.737 33.804 0 0-58.851 706.175-58.851 706.175h615.825zM535.253 601.76v-429.281c0-12.833-10.42-23.253-23.253-23.253s-23.253 10.42-23.253 23.253v429.281c0 12.833 10.42 23.249 23.253 23.249s23.253-10.416 23.253-23.249zM659.059 601.76v-429.281c0-12.833-10.416-23.253-23.249-23.253s-23.253 10.42-23.253 23.253v429.281c0 12.833 10.42 23.249 23.253 23.249s23.249-10.416 23.249-23.249zM411.443 601.76v-429.281c0-12.833-10.42-23.253-23.253-23.253s-23.249 10.42-23.249 23.253v429.281c0 12.833 10.416 23.249 23.249 23.249s23.253-10.416 23.253-23.249zM677.855 803.836h-331.092l41.464 52.228c11.186 14.094 28.197 22.311 46.195 22.311 40.718 0 115.13 0 155.869 0 18.018 0 35.049-8.237 46.236-22.36l41.329-52.179z" />
<glyph unicode="&#xe912;" glyph-name="text" d="M638.689 289.911h-330.904l-57.987-141.259c-14.287-34.763-21.43-60.727-21.43-77.89 0-13.64 6.197-25.633 18.592-35.975 12.394-10.338 39.182-17.052 80.364-20.132v-24.424h-269.136v24.424c35.717 6.603 58.827 15.184 69.333 25.743 21.43 21.123 45.171 64.029 71.221 128.717l300.65 736.653h22.061l297.501-744.575c23.949-59.847 45.695-98.681 65.237-116.503 19.538-17.826 46.744-27.836 81.621-30.036v-24.424h-337.207v24.424c34.034 1.761 57.041 7.7 69.018 17.822s17.961 22.442 17.961 36.966c0 19.362-8.401 49.947-25.211 91.75l-51.683 128.717zM621.040 338.756l-144.966 361.726-148.75-361.726h293.716z" />
<glyph unicode="&#xe913;" glyph-name="ga-polygon" d="M235.098-1.151c-9.372-3.502-19.902 0.274-24.908 8.933l-202.301 350.032c-2.511 4.35-3.338 9.47-2.327 14.389l89.776 435.114c1.163 5.636 4.649 10.527 9.597 13.468 4.952 2.941 10.908 3.662 16.417 1.987l275.587-83.784c5.513-1.675 11.481-0.95 16.433 1.995l311.64 185.524c8.634 5.14 19.718 3.26 26.173-4.44l261.833-312.353c4.313-5.145 5.829-12.075 4.063-18.551l-143.606-525.816c-2.871-10.514-13.472-16.937-24.121-14.615l-300.491 65.491-313.766-117.375zM64.561 374.358l179.667-310.866 284.545 106.439c0.090 0.037 0.184 0.070 0.279 0.106 10.301 3.793 21.475 4.547 32.027 2.216l266.297-58.040 129.303 473.448-229.286 273.527-284.688-169.476c-18.821-11.207-41.492-13.959-62.448-7.59l-236.921 72.032-78.774-381.796zM581.751 341.418h-135.75l-25.502-75.751h-80.499l131.498 368.501h87.003l130.499-368.501h-83.501l-23.749 75.751zM560.251 404.918l-46.002 144.998-47.497-144.998h93.499z" />
<glyph unicode="&#xe914;" glyph-name="ga, generalAdmission, ga-rectangle" d="M955.597 681.472v-466.944c0-115.97-94.155-210.125-210.125-210.125h-466.944c-115.97 0-210.125 94.155-210.125 210.125v466.944c0 115.97 94.155 210.125 210.125 210.125h466.944c115.97 0 210.125-94.155 210.125-210.125zM901.12 681.472c0 85.905-69.743 155.648-155.648 155.648h-466.944c-85.905 0-155.648-69.743-155.648-155.648v-466.944c0-85.905 69.743-155.648 155.648-155.648h466.944c85.905 0 155.648 69.743 155.648 155.648v466.944zM581.751 341.418h-135.75l-25.502-75.751h-80.499l131.498 368.501h87.003l130.499-368.501h-83.501l-23.749 75.751zM560.251 404.918l-46.002 144.998-47.497-144.998h93.499z" />
<glyph unicode="&#xe915;" glyph-name="row, row-single" d="M512 586.49c76.435 0 138.49-62.054 138.49-138.49s-62.054-138.49-138.49-138.49c-76.435 0-138.49 62.054-138.49 138.49s62.054 138.49 138.49 138.49zM512 532.451c-46.608 0-84.451-37.843-84.451-84.451s37.843-84.451 84.451-84.451c46.608 0 84.451 37.843 84.451 84.451s-37.843 84.451-84.451 84.451zM202.637 586.49c76.435 0 138.49-62.054 138.49-138.49s-62.054-138.49-138.49-138.49c-76.435 0-138.49 62.054-138.49 138.49s62.054 138.49 138.49 138.49zM202.637 532.451c-46.608 0-84.451-37.843-84.451-84.451s37.843-84.451 84.451-84.451c46.608 0 84.451 37.843 84.451 84.451s-37.843 84.451-84.451 84.451zM821.363 586.49c76.435 0 138.49-62.054 138.49-138.49s-62.054-138.49-138.49-138.49c-76.435 0-138.49 62.054-138.49 138.49s62.054 138.49 138.49 138.49zM821.363 532.451c-46.608 0-84.451-37.843-84.451-84.451s37.843-84.451 84.451-84.451c46.608 0 84.451 37.843 84.451 84.451s-37.843 84.451-84.451 84.451z" />
<glyph unicode="&#xe916;" glyph-name="join" d="M1015.124 778.83v-443.056c0-71.946-58.323-130.273-130.269-130.273h-291.734c-17.658 0-31.969-14.311-31.969-31.969v-10.699c0-71.946-58.323-130.273-130.273-130.273h-291.734c-71.946 0-130.269 58.327-130.269 130.273v443.056c0 71.946 58.323 130.273 130.269 130.273h291.734c17.658 0 31.969 14.311 31.969 31.969v10.699c0 71.95 58.323 130.273 130.273 130.273h291.734c71.946 0 130.269-58.323 130.269-130.273zM965.972 778.83c0 44.802-36.319 81.121-81.117 81.121h-291.734c-44.802 0-81.121-36.319-81.121-81.121v-10.699c0-44.802-36.319-81.121-81.121-81.121h-291.734c-44.798 0-81.117-36.319-81.117-81.121v-443.056c0-44.802 36.319-81.121 81.117-81.121h291.734c44.802 0 81.121 36.319 81.121 81.121v10.703c0 44.798 36.319 81.117 81.121 81.117h291.734c44.798 0 81.117 36.319 81.117 81.121v443.056zM448.844 542.663v-323.912c0-15.241-6.058-29.86-16.835-40.636-10.777-10.781-25.395-16.835-40.641-16.835h-216.904c-15.245 0-29.864 6.054-40.641 16.835-10.781 10.777-16.835 25.395-16.835 40.636v323.912c0 15.245 6.054 29.864 16.835 40.641 10.777 10.781 25.395 16.835 40.641 16.835h216.904c15.245 0 29.864-6.054 40.641-16.835 10.777-10.777 16.835-25.395 16.835-40.641zM190.718 235.008h184.398v291.402h-184.398v-291.402zM911.106 718.209v-323.912c0-15.245-6.054-29.864-16.835-40.641-10.777-10.781-25.395-16.835-40.641-16.835h-216.904c-15.245 0-29.864 6.054-40.641 16.835-10.777 10.777-16.835 25.395-16.835 40.641v323.912c0 15.241 6.058 29.86 16.835 40.636 10.777 10.781 25.395 16.835 40.641 16.835h216.904c15.245 0 29.864-6.054 40.641-16.835 10.781-10.777 16.835-25.395 16.835-40.636zM652.98 410.55h184.398v291.402h-184.398v-291.402z" />
<glyph unicode="&#xe917;" glyph-name="focalpoint" d="M513.511 914.94c169.329-0.803 333.767-99.574 413.020-251.929 78.742-151.368 66.49-346.071-35.418-487.526-102.576-142.385-289.473-219.632-466.026-186.339-187.933 35.439-347.038 195.011-375.292 392.135-24.67 172.147 54.874 355.615 202.375 454.656 75.44 50.655 165.474 78.275 256.811 79 1.511 0.004 3.019 0.008 4.53 0.004zM510.636 869.859c-105.783-0.504-210.051-41.988-286.876-113.934-64.143-60.072-108.982-140.505-125.817-226.816-31.642-162.202 40.44-340.169 182.485-433.701 135.016-88.908 322.331-91.525 461.017-1.393 100.458 65.286 171.069 174.645 188.133 293.708 12.235 85.344-2.265 174.35-41.316 251.122-69.591 136.81-218.796 229.294-372.175 230.998-1.819 0.012-3.633 0.020-5.452 0.016zM513.626 699.617c90.894-0.864 178.762-54.305 221.045-134.402 36.241-68.649 38.187-154.509 4.78-224.887-47.075-99.181-163.062-160.928-275.059-139.444-102.691 19.698-187.912 109.728-201.785 213.516-10.613 79.389 19.268 163.078 78.021 217.776 45.642 42.492 107.282 66.847 169.746 67.441 1.085 0.004 2.167 0.004 3.252 0zM510.865 623.591c-80.536-0.766-155.988-62.448-171.315-142.369-11.014-57.401 8.925-119.882 51.323-160.309 48.919-46.637 125.809-61.637 189.448-34.701 56.369 23.859 98.161 78.905 105.861 139.436 9.495 74.592-34.685 152.994-103.895 183.296-22.413 9.81-46.903 14.725-71.422 14.647z" />
<glyph unicode="&#xe918;" glyph-name="duplicate-seats" d="M603.259 729.268c198.398 0 359.469-161.071 359.469-359.469 0-198.394-161.071-359.465-359.469-359.465-198.394 0-359.465 161.071-359.465 359.465 0 198.398 161.071 359.469 359.465 359.469zM671.306 187.191c0 37.552-30.491 68.043-68.047 68.043-37.552 0-68.043-30.491-68.043-68.043 0-37.556 30.491-68.047 68.043-68.047 37.556 0 68.047 30.491 68.047 68.047zM193.479 202.498c-79.073 65.946-129.417 165.196-129.417 276.111 0 198.398 161.071 359.469 359.465 359.469 49.021 0 95.764-9.834 138.338-27.644-224.883-20.865-401.187-210.321-401.187-440.635 0-59.204 11.653-115.708 32.801-167.301zM658.563 546.623c0 30.523-24.781 55.304-55.304 55.304-30.519 0-55.3-24.781-55.3-55.304v-193.556c0-30.523 24.781-55.304 55.3-55.304 30.523 0 55.304 24.781 55.304 55.304v193.556z" />
<glyph unicode="&#xe919;" glyph-name="duplicate" d="M825.483 702.845l-0.434 72.651c-0.672 42.398-37.609 80.785-81.732 81.203-220.271 0.7-440.549 0.7-660.824 0-42.578-0.406-81.31-37.261-81.736-81.736-0.479-151.757-1.438-303.526 0.008-455.279 0.672-42.398 37.609-80.785 81.727-81.207l71.344-0.225 0.131 45.072-70.869 0.209c-19.059 0-36.835 16.298-37.278 36.495-2.585 151.79-3.318 303.657 0.004 455.43 0.508 18.948 16.974 35.996 36.954 36.184 219.976 0.7 439.955 0.004 659.935 0.004 19.411-0.061 37.093-17.256 37.286-36.954l0.434-71.848h45.048zM943.018 656.998l0.532-0.004 0.532-0.008 0.528-0.012 1.057-0.033 1.053-0.049 1.049-0.057 1.044-0.074 0.52-0.041 0.524-0.045 1.036-0.098 1.552-0.172 1.028-0.131 0.512-0.074 0.512-0.070 0.512-0.078 1.016-0.164 1.016-0.172 1.012-0.188 0.504-0.098 1.004-0.205 1.495-0.332 0.995-0.238 0.492-0.123 0.496-0.123 0.983-0.262 0.487-0.135 0.492-0.135 0.487-0.139 0.483-0.143 0.487-0.147 0.483-0.147 0.479-0.152 0.483-0.156 0.479-0.156 0.479-0.164 0.475-0.16 0.95-0.336 0.475-0.172 0.942-0.352 0.467-0.18 0.934-0.369 0.467-0.188 0.926-0.385 0.918-0.397 0.913-0.406 0.909-0.418 0.901-0.426 0.897-0.442 0.889-0.446 0.885-0.459 0.877-0.471 0.872-0.479 0.864-0.492 0.856-0.5 0.852-0.512 0.848-0.52 0.836-0.532 0.831-0.537 0.823-0.553 0.819-0.557 0.811-0.569 0.803-0.578 0.795-0.59 0.786-0.598 0.782-0.606 0.774-0.614 0.766-0.623 0.758-0.635 0.75-0.643 0.741-0.651 0.737-0.659 0.725-0.668 0.717-0.676 0.713-0.688 0.7-0.692 0.696-0.705 0.684-0.709 0.676-0.717 0.672-0.729 0.659-0.733 0.651-0.741 0.639-0.754 0.635-0.758 0.623-0.766 0.618-0.774 0.606-0.778 0.598-0.791 0.586-0.795 0.578-0.803 0.569-0.811 0.561-0.815 0.549-0.823 0.541-0.831 0.528-0.84 0.52-0.844 0.512-0.852 0.5-0.856 0.492-0.868 0.479-0.868 0.471-0.877 0.459-0.885 0.451-0.889 0.438-0.897 0.43-0.901 0.418-0.909 0.406-0.913 0.393-0.922 0.197-0.463 0.377-0.926 0.188-0.467 0.18-0.467 0.36-0.942 0.344-0.942 0.336-0.95 0.164-0.479 0.16-0.479 0.311-0.958 0.303-0.967 0.143-0.483 0.143-0.487 0.279-0.975 0.135-0.492 0.131-0.487 0.127-0.496 0.127-0.492 0.123-0.496 0.119-0.496 0.115-0.496 0.115-0.5 0.111-0.5 0.213-0.999 0.197-1.008 0.188-1.008 0.090-0.508 0.086-0.508 0.082-0.508 0.078-0.512 0.078-0.508 0.074-0.512 0.070-0.516 0.066-0.512 0.066-0.516 0.061-0.516 0.057-0.516 0.053-0.516 0.053-0.52 0.090-1.040 0.041-0.52 0.041-0.524 0.066-1.049 0.029-0.524 0.025-0.524 0.041-1.057 0.025-1.057 0.008-0.528 0.008-0.532v-454.75l-0.008-0.528-0.008-0.532-0.025-1.057-0.020-0.528-0.020-0.524-0.025-0.528-0.029-0.524-0.066-1.049-0.041-0.52-0.041-0.524-0.090-1.040-0.053-0.516-0.053-0.52-0.057-0.516-0.061-0.516-0.066-0.516-0.066-0.512-0.070-0.512-0.074-0.512-0.078-0.512-0.078-0.508-0.082-0.512-0.086-0.508-0.090-0.504-0.094-0.508-0.094-0.504-0.197-1.008-0.213-0.999-0.111-0.5-0.115-0.5-0.115-0.496-0.119-0.496-0.123-0.496-0.254-0.983-0.131-0.492-0.135-0.492-0.279-0.975-0.143-0.483-0.143-0.487-0.303-0.967-0.311-0.958-0.16-0.479-0.164-0.475-0.168-0.479-0.168-0.471-0.172-0.475-0.172-0.471-0.18-0.471-0.18-0.467-0.18-0.471-0.188-0.463-0.188-0.467-0.188-0.463-0.197-0.463-0.393-0.918-0.406-0.918-0.418-0.905-0.43-0.901-0.438-0.897-0.451-0.889-0.459-0.885-0.471-0.877-0.479-0.872-0.492-0.864-0.5-0.86-0.512-0.852-0.52-0.844-0.528-0.836-0.541-0.831-0.549-0.823-0.561-0.819-0.569-0.811-0.578-0.803-0.586-0.795-0.598-0.786-0.606-0.782-0.618-0.774-0.623-0.766-0.635-0.758-0.639-0.75-0.651-0.741-0.659-0.737-0.672-0.725-0.676-0.721-0.684-0.709-0.696-0.705-0.7-0.692-0.713-0.684-0.717-0.68-0.725-0.668-0.737-0.659-0.741-0.651-0.75-0.643-0.758-0.631-0.766-0.627-0.774-0.614-0.782-0.606-0.786-0.598-0.795-0.586-0.803-0.578-0.811-0.569-0.819-0.561-0.823-0.549-0.831-0.541-0.836-0.532-0.848-0.52-0.852-0.508-0.856-0.5-0.864-0.492-0.872-0.479-0.877-0.471-0.885-0.459-0.889-0.451-0.897-0.438-0.901-0.43-0.909-0.418-0.913-0.406-0.918-0.397-0.926-0.385-0.467-0.188-0.934-0.369-0.467-0.18-0.942-0.352-0.475-0.168-0.475-0.172-0.95-0.328-0.958-0.319-0.483-0.152-0.479-0.156-0.483-0.147-0.487-0.143-0.483-0.143-0.487-0.143-0.492-0.135-0.487-0.135-0.492-0.131-0.492-0.127-0.496-0.127-0.492-0.123-0.496-0.119-0.995-0.229-0.5-0.111-1.004-0.213-1.508-0.295-1.016-0.18-0.508-0.086-1.016-0.164-1.024-0.147-1.028-0.139-1.028-0.123-0.52-0.057-1.036-0.106-0.516-0.049-0.524-0.041-0.52-0.045-0.52-0.037-1.049-0.066-0.524-0.029-0.528-0.025-1.053-0.041-0.528-0.016-1.593-0.025-674.337 1.195-1.016 0.18-1.507 0.295-1.004 0.213-0.5 0.111-0.995 0.229-0.496 0.119-0.492 0.123-0.496 0.127-0.492 0.127-0.492 0.131-0.487 0.135-0.492 0.135-0.487 0.143-0.483 0.143-0.487 0.143-0.483 0.147-0.479 0.156-0.483 0.152-0.958 0.319-0.95 0.328-0.475 0.172-0.475 0.168-0.942 0.352-0.467 0.18-0.934 0.369-0.467 0.188-0.926 0.385-0.918 0.397-0.913 0.406-0.909 0.418-0.901 0.43-0.897 0.438-0.889 0.451-0.885 0.459-0.877 0.471-0.872 0.479-0.864 0.492-0.856 0.5-0.852 0.508-0.848 0.52-0.836 0.532-0.831 0.541-0.823 0.549-0.819 0.561-0.811 0.569-0.803 0.578-0.795 0.586-0.786 0.598-0.782 0.606-0.774 0.614-0.766 0.627-0.758 0.631-0.75 0.643-0.741 0.651-0.737 0.659-0.725 0.668-0.717 0.68-0.713 0.684-0.7 0.692-0.696 0.705-0.684 0.709-0.676 0.721-0.672 0.725-0.659 0.737-0.651 0.741-0.639 0.75-0.635 0.758-0.623 0.766-0.618 0.774-0.606 0.782-0.594 0.786-0.59 0.795-0.578 0.803-0.569 0.811-0.561 0.819-0.549 0.823-0.541 0.831-0.528 0.836-0.52 0.844-0.512 0.852-0.5 0.86-0.492 0.864-0.479 0.872-0.471 0.877-0.459 0.885-0.451 0.889-0.438 0.897-0.43 0.901-0.414 0.905-0.41 0.918-0.393 0.918-0.197 0.463-0.188 0.463-0.188 0.467-0.188 0.463-0.18 0.471-0.18 0.467-0.18 0.471-0.172 0.471-0.172 0.475-0.168 0.471-0.168 0.479-0.164 0.475-0.16 0.479-0.311 0.958-0.303 0.967-0.143 0.487-0.143 0.483-0.279 0.975-0.135 0.492-0.131 0.492-0.254 0.983-0.123 0.496-0.119 0.496-0.115 0.496-0.115 0.5-0.111 0.5-0.213 0.999-0.197 1.008-0.094 0.504-0.094 0.508-0.090 0.504-0.086 0.508-0.082 0.512-0.078 0.508-0.078 0.512-0.074 0.512-0.070 0.512-0.066 0.512-0.066 0.516-0.061 0.516-0.057 0.516-0.053 0.52-0.053 0.516-0.090 1.040-0.041 0.524-0.041 0.52-0.066 1.049-0.029 0.524-0.025 0.528-0.020 0.524-0.020 0.528-0.025 1.057-0.008 0.532-0.004 0.528-0.004 0.532v453.685l0.008 1.065 0.008 0.528 0.025 1.057 0.041 1.057 0.025 0.524 0.029 0.524 0.066 1.049 0.041 0.524 0.041 0.52 0.090 1.040 0.053 0.52 0.053 0.516 0.057 0.516 0.061 0.516 0.066 0.516 0.066 0.512 0.070 0.516 0.074 0.512 0.078 0.508 0.078 0.512 0.082 0.508 0.086 0.508 0.090 0.508 0.188 1.008 0.197 1.008 0.213 0.999 0.111 0.5 0.115 0.5 0.115 0.496 0.119 0.496 0.123 0.496 0.127 0.492 0.127 0.496 0.131 0.487 0.135 0.492 0.279 0.975 0.143 0.487 0.143 0.483 0.303 0.967 0.311 0.958 0.16 0.479 0.164 0.479 0.336 0.95 0.344 0.942 0.36 0.942 0.18 0.467 0.188 0.467 0.377 0.926 0.197 0.463 0.393 0.922 0.41 0.913 0.414 0.909 0.43 0.901 0.438 0.897 0.451 0.889 0.459 0.885 0.471 0.877 0.479 0.868 0.492 0.868 0.5 0.856 0.512 0.852 0.52 0.844 0.528 0.84 0.541 0.831 0.549 0.823 0.561 0.815 0.569 0.811 0.578 0.803 0.59 0.795 0.594 0.791 0.606 0.778 0.618 0.774 0.623 0.766 0.635 0.758 0.639 0.754 0.651 0.741 0.659 0.733 0.672 0.729 0.676 0.717 0.684 0.709 0.696 0.705 0.7 0.692 0.713 0.688 0.717 0.676 0.725 0.668 0.737 0.659 0.741 0.651 0.75 0.643 0.758 0.635 0.766 0.623 0.774 0.614 0.782 0.606 0.786 0.598 0.795 0.59 0.803 0.578 0.811 0.569 0.819 0.557 0.823 0.553 0.831 0.537 0.836 0.532 0.848 0.52 0.852 0.512 0.856 0.5 0.864 0.492 0.872 0.479 0.877 0.471 0.885 0.459 0.889 0.446 0.897 0.442 0.901 0.426 0.909 0.418 0.913 0.406 0.918 0.397 0.926 0.385 0.467 0.188 0.934 0.369 0.467 0.18 0.942 0.352 0.475 0.172 0.95 0.336 0.475 0.16 0.479 0.164 0.479 0.156 0.483 0.156 0.479 0.152 0.483 0.147 0.487 0.147 0.483 0.143 0.487 0.139 0.492 0.135 0.487 0.135 0.983 0.262 0.496 0.123 0.492 0.123 0.995 0.238 1.495 0.332 1.004 0.205 0.504 0.098 1.012 0.188 1.016 0.172 1.016 0.164 0.512 0.078 0.512 0.070 0.512 0.074 1.028 0.131 1.552 0.172 1.040 0.098 0.52 0.045 0.52 0.041 1.044 0.074 1.049 0.057 1.053 0.049 1.057 0.033 0.532 0.012 0.528 0.008 0.532 0.004h660.82zM282.808 611.946l-0.311-0.004h-0.258l-0.254-0.004-0.254-0.008-0.225-0.004-0.225-0.008-0.987-0.049-0.242-0.016-0.242-0.020-0.213-0.016-0.238-0.020-0.471-0.045-0.233-0.025-0.258-0.029-0.233-0.025-0.201-0.025-0.229-0.033-0.254-0.033-0.475-0.070-0.193-0.033-0.246-0.037-0.25-0.045-0.217-0.037-0.217-0.041-0.242-0.045-0.209-0.041-0.213-0.041-0.475-0.102-0.205-0.045-0.467-0.106-0.229-0.057-0.205-0.049-0.451-0.115-0.197-0.053-0.225-0.061-0.221-0.061-0.221-0.066-0.217-0.066-0.221-0.066-0.43-0.131-0.451-0.147-0.184-0.061-0.209-0.074-0.233-0.082-0.229-0.082-0.209-0.074-0.176-0.066-0.225-0.086-0.229-0.086-0.176-0.070-0.221-0.090-0.225-0.090-0.197-0.082-0.143-0.057-0.471-0.205-0.418-0.184-0.414-0.188-0.406-0.193-0.397-0.197-0.397-0.201-0.401-0.209-0.406-0.217-0.389-0.213-0.385-0.221-0.393-0.229-0.385-0.229-0.377-0.233-0.377-0.238-0.377-0.246-0.385-0.258-0.369-0.25-0.365-0.254-0.365-0.266-0.36-0.266-0.365-0.279-0.352-0.27-0.348-0.279-0.356-0.287-0.348-0.295-0.332-0.283-0.34-0.299-0.344-0.307-0.328-0.299-0.324-0.307-0.647-0.631-0.315-0.319-0.315-0.328-0.307-0.328-0.307-0.332-0.299-0.332-0.299-0.344-0.295-0.344-0.287-0.344-0.283-0.344-0.279-0.348-0.279-0.36-0.274-0.365-0.262-0.356-0.262-0.36-0.258-0.373-0.254-0.369-0.254-0.381-0.246-0.373-0.238-0.381-0.233-0.381-0.229-0.381-0.229-0.393-0.225-0.393-0.213-0.389-0.213-0.397-0.209-0.401-0.401-0.803-0.188-0.406-0.188-0.41-0.184-0.41-0.262-0.614-0.090-0.213-0.082-0.209-0.086-0.209-0.078-0.201-0.086-0.221-0.078-0.213-0.078-0.205-0.078-0.213-0.074-0.213-0.074-0.209-0.074-0.217-0.074-0.225-0.070-0.213-0.066-0.205-0.070-0.213-0.070-0.221-0.066-0.217-0.061-0.221-0.066-0.217-0.061-0.221-0.057-0.213-0.057-0.217-0.061-0.225-0.053-0.217-0.057-0.225-0.053-0.221-0.053-0.225-0.049-0.229-0.049-0.217-0.049-0.225-0.045-0.225-0.045-0.221-0.045-0.225-0.045-0.229-0.041-0.233-0.037-0.221-0.041-0.225-0.037-0.238-0.037-0.225-0.033-0.229-0.033-0.233-0.033-0.229-0.029-0.229-0.057-0.475-0.029-0.229-0.020-0.229-0.025-0.242-0.020-0.238-0.020-0.229-0.020-0.242-0.016-0.242-0.016-0.238-0.016-0.233-0.025-0.483-0.016-0.483-0.008-0.246-0.004-0.242-0.004-0.25-0.004-0.242v-454.177l0.004-0.242 0.004-0.25 0.004-0.242 0.008-0.242 0.008-0.246 0.008-0.242 0.012-0.242 0.012-0.238 0.033-0.475 0.016-0.242 0.020-0.238 0.016-0.229 0.049-0.483 0.020-0.225 0.057-0.467 0.057-0.475 0.033-0.225 0.066-0.459 0.037-0.229 0.037-0.238 0.041-0.225 0.037-0.221 0.041-0.225 0.135-0.688 0.045-0.225 0.049-0.221 0.049-0.217 0.049-0.225 0.053-0.225 0.057-0.229 0.053-0.221 0.053-0.209 0.057-0.225 0.061-0.229 0.057-0.209 0.061-0.217 0.066-0.229 0.061-0.209 0.066-0.209 0.066-0.225 0.074-0.221 0.066-0.213 0.070-0.213 0.074-0.217 0.070-0.209 0.074-0.209 0.082-0.229 0.074-0.205 0.078-0.205 0.078-0.209 0.082-0.213 0.082-0.209 0.086-0.209 0.086-0.221 0.086-0.201 0.053-0.135 0.209-0.487 0.184-0.41 0.184-0.401 0.193-0.41 0.201-0.406 0.201-0.397 0.205-0.397 0.217-0.401 0.217-0.393 0.221-0.389 0.225-0.385 0.233-0.389 0.233-0.381 0.238-0.377 0.25-0.385 0.25-0.369 0.246-0.365 0.262-0.373 0.27-0.373 0.262-0.356 0.266-0.352 0.279-0.36 0.283-0.352 0.287-0.352 0.291-0.348 0.287-0.336 0.299-0.344 0.299-0.332 0.307-0.328 0.307-0.332 0.631-0.647 0.324-0.315 0.324-0.311 0.332-0.315 0.319-0.295 0.336-0.299 0.34-0.299 0.348-0.299 0.352-0.291 0.336-0.274 0.356-0.283 0.36-0.283 0.356-0.27 0.36-0.266 0.356-0.258 0.373-0.258 0.377-0.262 0.377-0.25 0.369-0.238 0.373-0.238 0.389-0.242 0.397-0.233 0.381-0.225 0.385-0.217 0.401-0.221 0.393-0.213 0.389-0.201 0.819-0.41 0.393-0.184 0.414-0.193 0.406-0.18 0.627-0.267 0.422-0.172 0.197-0.078 0.225-0.090 0.205-0.078 0.426-0.16 0.209-0.074 0.205-0.074 0.209-0.074 0.209-0.070 0.238-0.082 0.209-0.070 0.213-0.066 0.217-0.070 0.213-0.066 0.221-0.066 0.217-0.066 0.221-0.061 0.197-0.057 0.221-0.061 0.225-0.057 0.225-0.061 0.225-0.057 0.229-0.057 0.233-0.053 0.205-0.049 0.205-0.045 0.233-0.053 0.238-0.049 0.209-0.045 0.242-0.049 0.426-0.082 0.27-0.049 0.217-0.037 0.221-0.037 0.217-0.037 0.221-0.033 0.254-0.041 0.221-0.029 0.229-0.033 0.713-0.090 0.205-0.020 0.262-0.029 0.233-0.025 0.209-0.016 0.242-0.020 0.266-0.020 0.242-0.020 0.213-0.012 0.246-0.016 0.496-0.025 0.221-0.008 0.5-0.016 0.713-0.012 669.78 1.284 0.225 0.061 0.197 0.057 0.221 0.061 0.434 0.131 0.221 0.066 0.213 0.070 0.209 0.066 0.213 0.070 0.446 0.152 0.418 0.147 0.434 0.16 0.205 0.078 0.197 0.074 0.225 0.090 0.201 0.078 0.197 0.082 0.221 0.090 0.156 0.066 0.471 0.201 0.819 0.373 0.389 0.184 0.418 0.205 0.401 0.205 0.389 0.201 0.397 0.213 0.401 0.221 0.385 0.217 0.385 0.225 0.393 0.233 0.389 0.242 0.377 0.238 0.365 0.238 0.373 0.25 0.377 0.258 0.377 0.266 0.36 0.258 0.356 0.262 0.356 0.27 0.36 0.283 0.356 0.279 0.34 0.279 0.352 0.295 0.344 0.295 0.34 0.299 0.336 0.299 0.319 0.295 0.332 0.315 0.324 0.311 0.324 0.319 0.319 0.324 0.307 0.319 0.311 0.328 0.307 0.332 0.299 0.336 0.299 0.34 0.283 0.332 0.295 0.352 0.287 0.352 0.283 0.352 0.274 0.356 0.27 0.356 0.266 0.356 0.266 0.373 0.258 0.369 0.25 0.369 0.254 0.373 0.246 0.381 0.238 0.373 0.233 0.385 0.233 0.389 0.225 0.385 0.221 0.389 0.217 0.393 0.217 0.406 0.205 0.393 0.201 0.397 0.393 0.811 0.184 0.406 0.184 0.41 0.209 0.487 0.057 0.139 0.082 0.205 0.090 0.213 0.082 0.213 0.082 0.205 0.078 0.205 0.082 0.217 0.078 0.205 0.070 0.201 0.082 0.229 0.078 0.221 0.070 0.201 0.070 0.213 0.074 0.225 0.070 0.213 0.066 0.209 0.070 0.229 0.066 0.209 0.057 0.205 0.070 0.238 0.061 0.221 0.057 0.209 0.057 0.217 0.061 0.221 0.057 0.225 0.049 0.213 0.053 0.221 0.057 0.233 0.053 0.233 0.045 0.205 0.045 0.217 0.049 0.242 0.049 0.225 0.041 0.217 0.041 0.229 0.045 0.242 0.037 0.213 0.078 0.467 0.037 0.225 0.033 0.221 0.066 0.475 0.033 0.233 0.025 0.213 0.029 0.242 0.029 0.246 0.020 0.221 0.025 0.238 0.025 0.25 0.016 0.225 0.020 0.238 0.016 0.242 0.016 0.229 0.016 0.246 0.012 0.246 0.012 0.233 0.008 0.25 0.016 0.475 0.004 0.254 0.008 0.483v454.177l-0.008 0.483-0.004 0.254-0.008 0.242-0.008 0.233-0.008 0.25-0.012 0.238-0.012 0.246-0.016 0.242-0.016 0.229-0.016 0.242-0.020 0.242-0.016 0.225-0.025 0.246-0.025 0.238-0.020 0.221-0.057 0.492-0.025 0.213-0.033 0.225-0.066 0.483-0.033 0.221-0.037 0.217-0.041 0.254-0.074 0.434-0.045 0.246-0.041 0.229-0.041 0.209-0.045 0.221-0.049 0.242-0.049 0.225-0.045 0.205-0.053 0.233-0.057 0.229-0.049 0.217-0.053 0.217-0.061 0.233-0.057 0.225-0.053 0.201-0.061 0.213-0.061 0.221-0.066 0.233-0.061 0.213-0.066 0.217-0.074 0.229-0.061 0.201-0.066 0.205-0.074 0.225-0.074 0.217-0.074 0.213-0.078 0.221-0.147 0.418-0.078 0.205-0.164 0.434-0.078 0.193-0.082 0.217-0.086 0.201-0.086 0.213-0.066 0.152-0.201 0.471-0.184 0.41-0.188 0.414-0.193 0.406-0.197 0.397-0.201 0.401-0.209 0.401-0.213 0.397-0.213 0.389-0.225 0.393-0.229 0.393-0.229 0.381-0.233 0.385-0.238 0.377-0.242 0.369-0.258 0.385-0.254 0.373-0.258 0.369-0.258 0.356-0.266 0.36-0.279 0.369-0.274 0.356-0.279 0.344-0.283 0.348-0.291 0.348-0.291 0.34-0.299 0.34-0.299 0.336-0.307 0.332-0.311 0.332-0.311 0.324-0.315 0.319-0.647 0.631-0.324 0.307-0.328 0.299-0.344 0.307-0.344 0.303-0.324 0.279-0.352 0.291-0.36 0.295-0.344 0.274-0.352 0.27-0.365 0.279-0.356 0.266-0.369 0.262-0.369 0.258-0.365 0.254-0.385 0.254-0.377 0.246-0.377 0.238-0.377 0.233-0.385 0.229-0.393 0.229-0.385 0.221-0.389 0.213-0.41 0.217-0.397 0.209-0.393 0.201-0.406 0.197-0.401 0.193-0.414 0.188-0.418 0.184-0.471 0.205-0.143 0.061-0.197 0.078-0.221 0.090-0.401 0.16-0.221 0.086-0.229 0.086-0.184 0.066-0.201 0.074-0.467 0.164-0.205 0.074-0.193 0.061-0.238 0.078-0.209 0.070-0.188 0.057-0.463 0.139-0.217 0.066-0.221 0.066-0.221 0.061-0.422 0.115-0.451 0.115-0.205 0.049-0.229 0.057-0.467 0.106-0.205 0.045-0.475 0.102-0.213 0.041-0.209 0.041-0.242 0.045-0.217 0.041-0.217 0.037-0.246 0.041-0.25 0.041-0.197 0.033-0.471 0.070-0.254 0.033-0.229 0.033-0.201 0.025-0.724 0.079-0.471 0.045-0.238 0.020-0.213 0.016-0.242 0.020-0.242 0.016-0.987 0.049-0.225 0.008-0.225 0.004-0.254 0.008-0.254 0.004h-0.258l-0.311 0.004h-659.599zM587.112 488.104c0 14.070 11.424 25.494 25.498 25.494 14.070 0 25.494-11.424 25.494-25.494v-280.433c0-14.070-11.424-25.494-25.494-25.494-14.074 0-25.498 11.424-25.498 25.494v280.433zM472.392 322.396c-14.070 0-25.494 11.424-25.494 25.494s11.424 25.494 25.494 25.494h280.433c14.070 0 25.494-11.424 25.494-25.494s-11.424-25.494-25.494-25.494h-280.433z" />
<glyph unicode="&#xe91a;" glyph-name="flip-horizontal" d="M195.293 0.901v46.268h106.611v-46.514c-35.541-0.049-71.082 0.053-106.611 0.246zM481.489 90.62c-0.311-22.847-0.688-45.691-1.114-68.534-0.319-10.33-9.208-19.632-19.964-19.964-32.354-0.602-64.713-0.991-97.067-1.196v46.244h76.079v43.45h42.066zM70.652 135.672l37.036-21.385c-12.186-22.393-24.302-44.777-36.336-67.117h62.501v-45.863l-99.897 0.811c-13.746 0.336-24.494 16.794-17.85 29.889l54.546 103.666zM483.226 274.088c-0.193-40.673-0.5-81.351-0.958-122.028h-42.844v122.028h43.803zM163.516 312.771l40.194-23.208-41.107-74.736-25.473-46.592-37.933 21.901 26.972 51.47 37.347 71.164zM483.385 457.556c0.111-40.677 0.135-81.355 0.057-122.028h-44.020v122.028h43.962zM256.688 489.009l43.266-24.982-66.568-120.652-41.259 23.818c21.418 40.657 42.914 81.269 64.561 121.815zM347.701 657.293l44.249-25.547-43.778-80.069-18.596-33.808-43.864 25.326c20.5 38.126 41.148 76.169 61.989 114.098zM483.058 546.763l0.102-27.767h-43.737v110.698h43.086l0.549-82.932zM377.426 711.078c28.791 51.761 57.991 103.289 87.724 154.518 1.503 2.462 4.235 4.018 7.164 4.002 4.219-0.111 7.93-3.74 8.065-8.016 0.606-56.816 1.176-113.639 1.642-170.447h-42.598v28.205l-18.145-33.583-43.852 25.321zM554.803 869.597c-4.219-0.111-7.93-3.74-8.069-8.016-2.966-279.818-5.202-559.714 0.004-839.496 0.324-10.33 9.212-19.632 19.968-19.964 142.127-2.646 284.307-1.171 426.451-0.004 13.75 0.336 24.498 16.794 17.854 29.889-147.399 279.085-290.603 560.628-449.049 833.589-1.499 2.462-4.231 4.018-7.16 4.002zM951.669 47.17h-359.879v668.074c119.96-222.691 239.919-445.383 359.879-668.074z" />
<glyph unicode="&#xe91b;" glyph-name="flip-vertical" d="M946.217 129.733h-46.268v106.615h46.514c0.053-35.541-0.053-71.086-0.246-106.615zM856.498 415.932c22.847-0.315 45.691-0.688 68.534-1.114 10.33-0.319 19.632-9.212 19.968-19.964 0.598-32.354 0.987-64.713 1.192-97.067h-46.244v76.079h-43.45v42.066zM811.446 5.091l21.385 37.040c22.393-12.186 44.777-24.302 67.117-36.336v62.497h45.863l-0.811-99.893c-0.336-13.75-16.794-24.494-29.889-17.85l-103.666 54.542zM673.030 417.665c40.673-0.188 81.351-0.496 122.028-0.958v-42.84h-122.028v43.799zM634.348 97.96l23.208 40.194 74.736-41.112 46.592-25.473-21.901-37.933-122.634 64.324zM489.562 417.829c40.677 0.106 81.355 0.131 122.028 0.057v-44.020h-122.028v43.962zM458.109 191.128l24.982 43.266 120.652-66.564-23.818-41.259c-40.657 21.418-81.269 42.91-121.815 64.557zM289.825 282.141l25.547 44.253 113.877-62.374-25.326-43.864c-38.126 20.5-76.169 41.148-114.098 61.985zM400.355 417.497l27.767 0.102v-43.733h-110.698v43.086l82.932 0.545zM236.040 311.865c-51.761 28.791-103.289 57.991-154.518 87.728-2.462 1.499-4.018 4.235-4.002 7.164 0.111 4.219 3.74 7.93 8.016 8.065 56.82 0.602 113.639 1.176 170.447 1.638v-42.594h-28.201l33.579-18.145-25.321-43.856zM77.521 489.243c0.111-4.219 3.74-7.93 8.016-8.065 279.818-2.97 559.714-5.202 839.496 0.004 10.33 0.319 19.632 9.212 19.968 19.964 2.642 142.127 1.167 284.307 0 426.455-0.336 13.75-16.794 24.494-29.889 17.85-279.085-147.395-560.628-290.599-833.589-449.044-2.462-1.499-4.018-4.235-4.002-7.164zM899.949 886.108v-359.879h-668.070c222.687 119.96 445.379 239.919 668.070 359.879z" />
<glyph unicode="&#xe91c;" glyph-name="arrow-down" d="M512 54.456l423.936 746.127h-847.872l423.936-746.127z" />
<glyph unicode="&#xe91d;" glyph-name="arrow-left" d="M118.456 448l746.127-423.936v847.872l-746.127-423.936z" />
<glyph unicode="&#xe91e;" glyph-name="arrow-right" d="M905.544 448l-746.127 423.936v-847.872l746.127 423.936z" />
<glyph unicode="&#xe91f;" glyph-name="arrow-up" d="M512 841.544l-423.936-746.127h847.872l-423.936 746.127z" />
<glyph unicode="&#xe920;" glyph-name="event-done" d="M928.055 526.643l-106.451-156.549c-34.001-139.747-160.080-243.622-310.227-243.622-176.198 0-319.25 143.053-319.25 319.25 0 176.202 143.053 319.255 319.25 319.255 33.026 0 64.889-5.026 94.859-14.356l55.28 92.135c-46.682 17.682-97.288 27.365-150.139 27.365-234.23 0-424.395-190.169-424.395-424.399s190.165-424.395 424.395-424.395c234.234 0 424.399 190.165 424.399 424.395 0 27.668-2.654 54.723-7.721 80.921zM499.9 289.321l35.971-22.819c33.554-21.283 78.074-11.321 99.357 22.233l350.065 551.858c11.751 18.53 6.25 43.119-12.28 54.874l-67.15 42.594c-18.53 11.756-43.114 6.255-54.87-12.276l-302.752-477.274-165.171 112.796c-18.121 12.378-42.881 7.713-55.255-10.412l-44.847-65.667c-12.374-18.121-7.709-42.881 10.412-55.255l199.123-135.983c2.429-1.659 4.895-3.215 7.397-4.669z" />
<glyph unicode="&#xe921;" glyph-name="arrow-link" d="M610.599 448l-331.723 331.723c-24.752 24.752-24.752 64.942 0 89.694 24.748 24.752 64.942 24.752 89.694 0l376.553-376.558c12.382-12.378 18.571-28.619 18.567-44.859 0.004-16.241-6.185-32.481-18.567-44.859l-376.553-376.558c-24.752-24.752-64.946-24.752-89.694 0-24.752 24.752-24.752 64.942 0 89.694l331.723 331.723z" />
<glyph unicode="&#xe922;" glyph-name="seats" d="M513.393 873.538c-247.992 0-449.331-201.339-449.331-449.331 0-247.996 201.339-449.335 449.331-449.335 247.996 0 449.335 201.339 449.335 449.335 0 247.992-201.339 449.331-449.335 449.331zM513.393 785.531c199.422 0 361.325-161.907 361.325-361.325 0-199.422-161.903-361.325-361.325-361.325-199.418 0-361.32 161.903-361.32 361.325 0 199.418 161.903 361.325 361.32 361.325zM513.393 745.538c177.349 0 321.331-143.983 321.331-321.331s-143.983-321.331-321.331-321.331c-177.345 0-321.331 143.983-321.331 321.331s143.987 321.331 321.331 321.331z" />
<glyph unicode="&#xe923;" glyph-name="unlabeled-rows" d="M747.209 166.732c4.624 0.106 8.192 3.736 8.192 8.192v498.561c0 4.461-3.568 8.090-8.192 8.192h-458.953c-4.624-0.102-8.192-3.731-8.192-8.192v-498.561c0-4.518 3.674-8.192 8.192-8.192h458.953zM224.989 637.51v-426.607l-8.679-0.221c-117.846 0-213.524 95.678-213.524 213.524s95.678 213.52 213.524 213.52l8.679-0.217zM810.476 637.727c117.85 0 213.524-95.674 213.524-213.52s-95.674-213.524-213.524-213.524v427.045zM517.861 239.243c-9.916 0-18.571 3.207-25.965 9.626-7.393 6.423-11.092 15.401-11.092 26.939 0 10.236 3.576 18.85 10.727 25.838s15.925 10.482 26.329 10.482c10.236 0 18.85-3.494 25.838-10.482s10.482-15.602 10.482-25.838c0-11.379-3.658-20.316-10.969-26.817s-15.766-9.748-25.35-9.748zM398.897 506.413c0 15.442 4.96 31.085 14.873 46.928s24.375 28.967 43.389 39.371c19.018 10.4 41.198 15.598 66.552 15.598 23.564 0 44.364-4.346 62.407-13.042 18.039-8.692 31.973-20.517 41.804-35.467 9.834-14.95 14.75-31.203 14.75-48.755 0-13.812-2.802-25.919-8.409-36.319-5.607-10.404-12.272-19.382-19.993-26.939-7.717-7.557-21.574-20.271-41.562-38.15-5.526-5.038-9.953-9.466-13.283-13.283-3.334-3.822-5.812-7.315-7.434-10.482-1.626-3.17-2.888-6.341-3.781-9.511-0.893-3.166-2.232-8.733-4.022-16.695-3.088-16.904-12.759-25.354-29.008-25.354-8.45 0-15.561 2.765-21.332 8.29-5.767 5.526-8.651 13.73-8.651 24.621 0 13.648 2.109 25.473 6.337 35.467s9.83 18.772 16.818 26.329c6.992 7.557 16.417 16.536 28.279 26.935 10.4 9.101 17.916 15.966 22.548 20.599s8.532 9.789 11.702 15.479c3.17 5.689 4.751 11.862 4.751 18.526 0 13.001-4.833 23.97-14.504 32.911-9.667 8.937-22.143 13.406-37.417 13.406-17.879 0-31.039-4.51-39.49-13.529-8.454-9.019-15.602-22.307-21.455-39.858-5.526-18.362-16.007-27.546-31.445-27.546-9.101 0-16.781 3.211-23.036 9.63-6.259 6.418-9.388 13.365-9.388 20.84z" />
<glyph unicode="&#xe924;" glyph-name="edit" d="M716.272 774.574l122.438-122.438c0 0-486.060-486.060-563.503-563.503-6.844-6.84-14.844-12.419-23.634-16.47-26.366-12.153-87.073-40.137-137.093-63.197-11.862-5.464-25.874-2.961-35.107 6.271-9.236 9.236-11.739 23.245-6.271 35.107 23.060 50.024 51.044 110.731 63.197 137.097 4.026 8.737 9.56 16.695 16.47 23.634l563.503 563.499zM819.749 878.055c33.812 33.694 88.445 33.661 122.106 0 33.882-33.882 33.882-88.891 0-122.769l-63.795-63.799-122.442 122.438 64.131 64.131z" />
<glyph unicode="&#xe925;" glyph-name="return" d="M512 919.040c-259.973 0-471.040-211.067-471.040-471.040s211.067-471.040 471.040-471.040c259.973 0 471.040 211.067 471.040 471.040s-211.067 471.040-471.040 471.040zM512 860.512c227.672 0 412.512-184.84 412.512-412.512s-184.84-412.512-412.512-412.512c-227.672 0-412.512 184.84-412.512 412.512s184.84 412.512 412.512 412.512zM501.277 596.906c124.756 3.461 280.994-45.113 258.060-225.378-12.587-98.935-106.873-194.286-247.681-170.775 136.696 11.19 176.153 125.714 181.273 149.946 21.082 99.758-70.935 150.888-191.652 151.56v-119.792l-238.871 158.196 238.871 158.192v-101.949z" />
<glyph unicode="&#xe926;" glyph-name="arrow-light-left" d="M267.092 448c0-10.318 3.928-20.623 11.78-28.475l409.326-409.326c15.712-15.708 41.218-15.708 56.926 0 15.712 15.708 15.712 41.218 0 56.926l-380.875 380.875 380.875 380.875c15.712 15.708 15.712 41.218 0 56.926-15.708 15.708-41.214 15.708-56.926 0l-409.326-409.326c-7.852-7.852-11.78-18.158-11.78-28.475z" />
<glyph unicode="&#xe927;" glyph-name="arrow-light-right" d="M756.908 448c0-10.318-3.928-20.623-11.78-28.475l-409.326-409.326c-15.712-15.708-41.218-15.708-56.926 0-15.712 15.708-15.712 41.218 0 56.926l380.875 380.875-380.875 380.875c-15.712 15.708-15.712 41.218 0 56.926 15.708 15.708 41.214 15.708 56.926 0l409.326-409.326c7.852-7.852 11.78-18.158 11.78-28.475z" />
<glyph unicode="&#xe928;" glyph-name="close-light" d="M455.074 448l-359.064 359.059c-15.708 15.712-15.708 41.218 0 56.93 15.712 15.708 41.218 15.708 56.93 0l359.059-359.064 359.059 359.064c15.712 15.708 41.218 15.708 56.93 0 15.708-15.712 15.708-41.218 0-56.93l-359.064-359.059 359.064-359.059c15.708-15.712 15.708-41.218 0-56.93-15.712-15.708-41.218-15.708-56.93 0l-359.059 359.064-359.059-359.064c-15.712-15.708-41.218-15.708-56.93 0-15.708 15.712-15.708 41.218 0 56.93l359.064 359.059z" />
<glyph unicode="&#xe929;" glyph-name="invert-horizontal" d="M611.918 838.062c14.455-1.647 15.516-3.731 21.848-7.84l373.416-267.637c26.497-20.931 18.223-69.526-16.835-76.145-3.461-0.655-4.362-0.573-7.868-0.737h-940.892c-36.741 1.7-58.95 55.792-22.327 78.467 6.103 3.781 9.556 5.763 22.327 6.353h808.915l-269.226 193.18c-9.261 8.815-10.572 12.571-12.706 19.427-7.987 25.62 12.988 55.579 43.348 54.931zM986.391 410.124c3.445-0.479 4.338-0.483 7.692-1.438 27.242-7.75 40.53-46.555 19.735-69.362-7.913-8.684-19.481-13.292-31.338-13.84h-808.919l269.23-193.18c2.519-2.396 3.244-2.92 5.415-5.652 20.619-25.932-2.011-74.379-39.948-68.264-6.427 1.036-12.394 3.793-17.953 7.401l-373.424 267.637c-10.134 7.999-11.784 11.674-14.537 18.383-10.31 25.158 9.302 57.098 39.244 58.499h940.892c1.303-0.061 2.609-0.123 3.912-0.184z" />
<glyph unicode="&#xe92a;" glyph-name="minus" d="M998.232 477.811c0 7.053-5.726 12.775-12.78 12.775h-946.905c-7.053 0-12.78-5.722-12.78-12.775v-59.621c0-7.053 5.726-12.775 12.78-12.775h946.905c7.053 0 12.78 5.722 12.78 12.775v59.621z" />
<glyph unicode="&#xe92b;" glyph-name="plus" d="M541.811 934.232c7.090-0.041 12.775-5.751 12.775-12.78v-430.866h430.866c7.090-0.037 12.78-5.747 12.78-12.775v-59.621c0-7.053-5.726-12.775-12.78-12.775h-430.866v-430.866c0-7.053-5.722-12.78-12.775-12.78h-59.621c-7.053 0-12.775 5.726-12.775 12.78v430.866h-430.866c-7.053 0-12.78 5.722-12.78 12.775v59.621c0 7.029 5.689 12.739 12.78 12.775h430.866v430.866c0 7.029 5.685 12.739 12.775 12.78h59.621z" />
<glyph unicode="&#xe92c;" glyph-name="label, labeling" d="M958.632 717.701c33.743-0.643 64.057-29.815 64.721-64.721 0.864-136.651 0.864-273.31 0-409.96-0.643-33.772-29.364-64.049-64.721-64.721-219.89-1.393-439.792-0.655-659.685-0.004-37.065 0.332-73.806 14.852-101.11 40.034-56.386 52.638-112.968 105.075-168.681 158.421-37.9 36.762-39.834 103.862 0 142.5 55.714 53.346 112.296 105.783 168.681 158.421 27.23 25.117 63.644 39.698 101.11 40.034 219.894 0.651 439.796 1.389 659.685-0.004zM957.645 673.989h-657.736c-26.518-0.078-52.822-10.355-72.339-28.369-56.295-52.503-113.095-104.489-168.342-158.102-21.082-20.693-21.254-58.679 0.528-79.544 55.914-52.871 111.735-105.849 168.288-158.032 19.251-17.555 44.88-27.697 71.164-27.931 219.718-0.651 439.48-4.166 659.161 0.008 11.141 0.352 20.91 10.084 21.262 21.254 2.585 136.458 2.585 272.994 0 409.453-0.356 11.358-10.543 21.262-21.987 21.262zM203.403 517.517c38.367 0 69.513-31.15 69.513-69.517s-31.146-69.517-69.513-69.517c-38.367 0-69.517 31.15-69.517 69.517s31.15 69.517 69.517 69.517z" />
<glyph unicode="&#xe92d;" glyph-name="unlabeled-seats" d="M513.393 873.538c-247.992 0-449.331-201.339-449.331-449.331 0-247.996 201.339-449.335 449.331-449.335 247.996 0 449.335 201.339 449.335 449.335 0 247.992-201.339 449.331-449.335 449.331zM513.393 776.495c194.433 0 352.289-157.856 352.289-352.289s-157.856-352.289-352.289-352.289c-194.433 0-352.289 157.856-352.289 352.289s157.856 352.289 352.289 352.289zM513.393 737.501c-172.913 0-313.295-140.382-313.295-313.295s140.382-313.295 313.295-313.295c172.913 0 313.299 140.382 313.299 313.295s-140.386 313.295-313.299 313.295zM510.382 249.36c-9.372 0-17.551 3.031-24.543 9.101-6.988 6.066-10.486 14.557-10.486 25.461 0 9.679 3.379 17.822 10.142 24.429 6.758 6.607 15.053 9.908 24.887 9.908 9.679 0 17.818-3.301 24.424-9.908s9.908-14.75 9.908-24.429c0-10.752-3.457-19.202-10.367-25.346-6.914-6.144-14.901-9.216-23.966-9.216zM397.926 501.92c0 14.594 4.686 29.381 14.057 44.356 9.372 14.979 23.044 27.386 41.017 37.216 17.973 9.834 38.945 14.75 62.91 14.75 22.274 0 41.939-4.108 58.991-12.329s30.228-19.395 39.522-33.53c9.294-14.131 13.939-29.495 13.939-46.084 0-13.062-2.65-24.506-7.95-34.337s-11.596-18.321-18.895-25.465c-7.295-7.143-20.394-19.165-39.289-36.061-5.222-4.764-9.409-8.95-12.558-12.558-3.15-3.613-5.493-6.914-7.029-9.912-1.536-2.994-2.728-5.988-3.572-8.987-0.844-2.994-2.114-8.258-3.801-15.782-2.92-15.978-12.063-23.966-27.423-23.966-7.987 0-14.709 2.609-20.165 7.832-5.452 5.226-8.18 12.984-8.18 23.278 0 12.902 1.999 24.080 5.992 33.526 3.994 9.449 9.294 17.744 15.901 24.887 6.603 7.143 15.516 15.634 26.73 25.465 9.83 8.602 16.937 15.094 21.316 19.472s8.065 9.257 11.059 14.631c2.994 5.378 4.493 11.215 4.493 17.514 0 12.288-4.571 22.659-13.709 31.109-9.142 8.45-20.935 12.673-35.373 12.673-16.9 0-29.344-4.264-37.331-12.788-7.987-8.528-14.75-21.086-20.279-37.679-5.222-17.359-15.131-26.038-29.725-26.038-8.606 0-15.864 3.035-21.778 9.101-5.915 6.070-8.872 12.636-8.872 19.706z" />
<glyph unicode="&#xe92e;" glyph-name="view-from-seats" d="M950.010 94.441c40.882 0.041 73.99 33.182 73.99 73.99v468.607c0 40.796-33.087 73.925-73.99 73.99h-234.676l-75.805 98.198c-0.258 0.332-0.655 0.524-1.073 0.524-13.742 0-236.085 0-249.905 0-0.422 0-0.823-0.197-1.077-0.532-5.915-7.803-74.404-98.189-74.404-98.189h-236.29c-40.862-0.025-73.994-33.169-73.994-73.99v-468.607c0-40.837 33.157-73.99 73.994-73.99h873.23zM513.393 627.483c124.043 0 224.752-100.704 224.752-224.748s-100.708-224.752-224.752-224.752c-124.043 0-224.752 100.708-224.752 224.752s100.708 224.748 224.752 224.748zM513.393 579.813c97.735 0 177.078-79.348 177.078-177.078 0-97.735-79.344-177.078-177.078-177.078-97.731 0-177.078 79.344-177.078 177.078 0 97.731 79.348 177.078 177.078 177.078zM234.66 730.116h-89.068c-12.394 0-22.462 10.064-22.462 22.462 0 12.386 10.043 22.442 22.462 22.462h89.068c12.419-0.020 22.462-10.076 22.462-22.462 0-12.37-10.023-22.422-22.462-22.462z" />
<glyph unicode="&#xe92f;" glyph-name="loupe" d="M638.939 242.852c-64.221-48.837-143.802-77.804-225.772-78.066-176.222-0.557-345.919 134.906-372.658 321.278-16.851 117.436 25.952 241.836 111.78 324.067 68.096 65.241 161.284 103.264 256.029 104.313 1.614 0.012 3.232 0.020 4.85 0.016 94.949-0.451 188.396-37.999 256.819-102.777 113.414-107.373 150.237-287.126 81.175-432.456-7.946-16.728-17.203-32.772-27.656-47.919l4.637-3.289c1.671-1.425 2.048-1.827 3.629-3.351l250.253-250.036c28.193-29.311 19.517-84.201-19.255-100.962-22.626-9.781-50.557-4.207-68.555 13.074l-250.253 250.036c-1.855 1.929-3.564 3.973-5.022 6.070zM411.079 810.93c-104.94-0.508-205.734-66.662-247.91-162.083-34.386-77.787-29.164-171.889 13.816-245.49 64.795-110.957 213.656-166.064 338.379-114.688 86.487 35.623 151.855 118.702 165.433 211.259 12.636 86.127-19.182 177.463-82.584 237.134-49.148 46.256-115.872 73.101-183.599 73.855-1.18 0.008-2.355 0.012-3.535 0.012z" />
<glyph unicode="&#xe930;" glyph-name="unlabeled-tables" d="M245.666 239.919c52.752-67.408 130.523-114.315 219.283-126.697-2.736-14.34-7.885-28.471-15.593-41.824-36.991-64.074-119.042-86.057-183.116-49.066s-86.057 119.046-49.066 183.116c7.725 13.378 17.412 24.92 28.492 34.472zM778.334 239.919c11.080-9.552 20.767-21.094 28.492-34.472 36.991-64.070 15.008-146.125-49.066-183.116s-146.125-15.008-183.116 49.066c-7.709 13.353-12.857 27.484-15.593 41.824 88.76 12.386 166.531 59.29 219.283 126.697zM198.533 321.352c-13.783-4.796-28.59-7.401-44.003-7.401-73.982 0-134.050 60.064-134.050 134.050s60.068 134.050 134.050 134.050c15.413 0 30.22-2.605 44.003-7.401-15.839-39.121-24.564-81.875-24.564-126.648s8.724-87.527 24.564-126.648zM825.467 574.648c13.783 4.796 28.59 7.401 44.003 7.401 73.982 0 134.050-60.064 134.050-134.050s-60.068-134.050-134.050-134.050c-15.413 0-30.22 2.605-44.003 7.401 15.839 39.121 24.564 81.875 24.564 126.648s-8.724 87.527-24.564 126.648zM245.666 656.081c-11.080 9.552-20.767 21.094-28.492 34.472-36.991 64.070-15.008 146.125 49.066 183.116s146.125 15.008 183.116-49.066c7.709-13.353 12.857-27.484 15.593-41.824-88.76-12.386-166.531-59.29-219.283-126.697zM559.051 782.778c2.736 14.34 7.885 28.471 15.593 41.824 36.991 64.074 119.042 86.057 183.116 49.066s86.057-119.046 49.066-183.116c-7.725-13.378-17.412-24.92-28.492-34.472-52.752 67.408-130.523 114.315-219.283 126.697zM512 716.104c-147.968 0-268.104-120.136-268.104-268.104s120.136-268.104 268.104-268.104c147.968 0 268.104 120.136 268.104 268.104s-120.136 268.104-268.104 268.104zM517.861 263.467c-9.916 0-18.571 3.207-25.965 9.626-7.393 6.423-11.092 15.401-11.092 26.939 0 10.236 3.576 18.85 10.727 25.838s15.925 10.482 26.329 10.482c10.236 0 18.85-3.494 25.838-10.482s10.482-15.602 10.482-25.838c0-11.379-3.658-20.316-10.969-26.817s-15.766-9.748-25.35-9.748zM398.897 530.637c0 15.442 4.96 31.085 14.873 46.928s24.375 28.967 43.389 39.371c19.018 10.4 41.198 15.598 66.552 15.598 23.564 0 44.364-4.346 62.407-13.042 18.039-8.692 31.973-20.517 41.804-35.467 9.834-14.95 14.75-31.203 14.75-48.755 0-13.812-2.802-25.919-8.409-36.319-5.607-10.404-12.272-19.382-19.993-26.939-7.717-7.557-21.574-20.271-41.562-38.15-5.526-5.038-9.953-9.466-13.283-13.283-3.334-3.822-5.812-7.315-7.434-10.486-1.626-3.166-2.888-6.337-3.781-9.507-0.893-3.166-2.232-8.733-4.022-16.695-3.088-16.904-12.759-25.354-29.008-25.354-8.45 0-15.561 2.765-21.332 8.29-5.767 5.526-8.651 13.73-8.651 24.621 0 13.648 2.109 25.473 6.337 35.467s9.83 18.772 16.818 26.329c6.992 7.557 16.417 16.536 28.279 26.935 10.4 9.101 17.916 15.966 22.548 20.599s8.532 9.789 11.702 15.479c3.17 5.689 4.751 11.862 4.751 18.526 0 13.001-4.833 23.97-14.504 32.911-9.667 8.937-22.143 13.406-37.417 13.406-17.879 0-31.039-4.51-39.49-13.529-8.454-9.019-15.602-22.307-21.455-39.858-5.526-18.362-16.007-27.546-31.445-27.546-9.101 0-16.781 3.211-23.036 9.63-6.259 6.418-9.388 13.365-9.388 20.84z" />
<glyph unicode="&#xe931;" glyph-name="uncategorized-objects" d="M512 897.335c-247.992 0-449.335-201.343-449.335-449.335s201.343-449.335 449.335-449.335c247.992 0 449.335 201.343 449.335 449.335s-201.343 449.335-449.335 449.335zM512 800.289c194.433 0 352.289-157.856 352.289-352.289s-157.856-352.289-352.289-352.289c-194.433 0-352.289 157.856-352.289 352.289s157.856 352.289 352.289 352.289zM833.212 435.253c-6.443-167.313-141.119-302.006-308.466-308.466l308.466 308.466zM797.102 596.533c14.688-28.017 25.334-58.438 31.109-90.538l-374.206-374.206c-32.113 5.845-62.566 16.466-90.538 31.109l433.635 433.635zM706.834 703.656c22.913-17.49 43.401-37.97 60.822-60.822l-450.49-450.49c-22.913 17.49-43.401 37.97-60.822 60.822l450.49 450.49zM569.995 764.211c32.113-5.845 62.566-16.466 90.538-31.109l-433.635-433.635c-14.688 28.017-25.334 58.438-31.109 90.538l374.206 374.206zM499.253 769.212l-308.466-308.466c6.443 167.313 141.119 302.006 308.466 308.466z" />
<glyph unicode="&#xe932;" glyph-name="select-seats" d="M517.542 279.359c0.004 10.134 0.012 20.267 0.016 30.405-2.937-0.164-5.898-0.246-8.872-0.246-87.683 0-158.867 71.184-158.867 158.867 0 87.679 71.184 158.867 158.867 158.867 87.679 0 158.863-71.188 158.863-158.867 0-28.791-7.676-55.804-21.090-79.102 7.373-7.361 14.746-14.725 22.118-22.090 18.579 29.274 29.34 63.988 29.34 101.192 0 104.44-84.795 189.231-189.231 189.231-104.44 0-189.231-84.791-189.231-189.231s84.791-189.231 189.231-189.231c2.966 0 5.919 0.070 8.856 0.205zM517.571 341.111c0.008 21.348 0.016 42.701 0.016 64.053 0 22.557 7.311 34.337 14.922 41.017 7.148 6.275 16.286 9.896 28.471 9.826l0.25-0.004c7.213-0.168 15.028-2.499 22.61-7.139 8.675-5.308 17.621-14.623 23.925-20.918 5.19-5.186 10.379-10.371 15.569-15.557 8.282 16.908 12.931 35.914 12.931 55.996 0 70.414-57.168 127.578-127.578 127.578-70.414 0-127.582-57.164-127.582-127.578s57.168-127.582 127.582-127.582c2.986 0 5.947 0.102 8.884 0.307zM88.842 316.154c73.847 73.851 193.761 73.851 267.612 0s73.851-193.761 0-267.612c-73.851-73.851-193.765-73.851-267.612 0-73.851 73.851-73.851 193.761 0 267.612zM110.313 294.683c-62.001-61.997-62.001-162.669 0-224.67 61.997-62.001 162.669-62.001 224.67 0s62.001 162.673 0 224.67c-62.001 62.001-162.673 62.001-224.67 0zM660.914 888.23c73.851 73.847 193.765 73.847 267.612 0 73.851-73.851 73.851-193.765 0-267.616-73.847-73.847-193.761-73.847-267.612 0-73.851 73.851-73.851 193.765 0 267.616zM682.385 866.759c-62.001-62.001-62.001-162.673 0-224.674 62.001-61.997 162.673-61.997 224.67 0 62.001 62.001 62.001 162.673 0 224.674-61.997 61.997-162.669 61.997-224.67 0zM560.574 428.134c9.363-0.217 20.337-12.767 27.484-19.911 83.87-83.804 168.018-167.756 252.068-251.642 0 0 2.724-3.088 3.359-6.271 1.405-7.029-4.391-14.197-12.009-14.651l-104.063-0.037c0 0 64.319-129.155 64.319-129.155 4.002-8.868 0.365-19.997-8.29-24.732-14.77-7.582-29.716-14.807-44.577-22.209-8.897-4.289-20.595-0.651-25.285 8.471l-66.978 134.48-80.511-79.127c0 0-5.292-4.219-10.572-3.351-5.669 0.93-9.925 6.189-10.269 12.095 0.086 124.326 0.193 248.664 0.213 373.068 0 17.904 5.018 23.028 15.11 22.97z" />
<glyph unicode="&#xe933;" glyph-name="node" d="M245.789 817.603c8.704-1.135 9.241-2.613 12.78-5.46l535.63-482.071c12.366-12.419 5.194-36.409-14.381-37.478h-312.476l-207.954-207.958c0 0-5.132-4.551-10.42-5.759-12.493-2.851-25.518 7.365-26.284 20.963v696.32c0.655 11.936 10.011 21.701 23.106 21.443zM265.687 151.749l177.545 177.545c0 0 5.132 4.555 10.42 5.759 2.097 0.479 2.65 0.422 4.784 0.541h265.347l-458.097 412.291c0-198.713 0-397.427 0-596.136z" />
<glyph unicode="&#xe934;" glyph-name="color-palette" d="M618.205 67.977c0-58.656-47.55-106.205-106.205-106.205s-106.205 47.55-106.205 106.205c0 58.656 47.55 106.205 106.205 106.205s106.205-47.55 106.205-106.205zM618.205 828.023c0-58.656-47.55-106.205-106.205-106.205s-106.205 47.55-106.205 106.205c0 58.656 47.55 106.205 106.205 106.205s106.205-47.55 106.205-106.205zM318.382 254.382c41.447-41.452 41.447-108.749 0-150.2-41.452-41.447-108.749-41.447-150.2 0-41.447 41.452-41.447 108.749 0 150.2 41.452 41.447 108.749 41.447 150.2 0zM855.818 791.818c41.447-41.452 41.447-108.749 0-150.2-41.452-41.447-108.749-41.447-150.2 0-41.447 41.452-41.447 108.749 0 150.2 41.452 41.447 108.749 41.447 150.2 0zM238.182 448c0-58.618-47.591-106.205-106.205-106.205-58.618 0-106.209 47.587-106.209 106.205s47.591 106.205 106.209 106.205c58.614 0 106.205-47.587 106.205-106.205zM998.232 448c0-58.618-47.591-106.205-106.209-106.205-58.614 0-106.205 47.587-106.205 106.205s47.591 106.205 106.205 106.205c58.618 0 106.209-47.587 106.209-106.205zM318.382 641.618c-41.452-41.447-108.749-41.447-150.2 0-41.447 41.452-41.447 108.749 0 150.2 41.452 41.447 108.749 41.447 150.2 0 41.447-41.452 41.447-108.749 0-150.2zM855.818 104.182c-41.452-41.447-108.749-41.447-150.2 0-41.447 41.452-41.447 108.749 0 150.2 41.452 41.447 108.749 41.447 150.2 0 41.447-41.452 41.447-108.749 0-150.2z" />
<glyph unicode="&#xe935;" glyph-name="color-picker" d="M581.325 659.735c-6.369 57.405 46.952 149.266 92.582 192.037 46.608 43.692 172.225 131.355 273.838 42.394 101.618-88.965 30.896-229.794-21.393-274.653-49.938-42.844-142.643-104.28-202.564-102.24l47.919-47.919c19.341-19.337 19.341-50.741 0-70.078-19.337-19.341-50.741-19.341-70.078 0l-65.327 65.327-398.275-405.107-172.196-96.047-41.255 41.054 106.136 174.072 392.491 399.122-62.235 62.235c-19.341 19.341-19.341 50.741 0 70.083 19.337 19.337 50.741 19.337 70.083 0l50.274-50.278zM201.515 214.11h149.643l267.706 267.923-78.549 78.549-338.801-346.472z" />
<glyph unicode="&#xe936;" glyph-name="colorblind" d="M16.384 448.803c-0.066-52.003 254.534-309.105 495.28-309.178 240.742-0.078 495.886 254.71 495.952 308.847s-256.627 307.831-495.19 307.905c-238.563 0.078-495.976-255.574-496.042-307.573zM512 637.247c104.448 0 189.247-84.799 189.247-189.247s-84.799-189.247-189.247-189.247c-104.448 0-189.247 84.799-189.247 189.247s84.799 189.247 189.247 189.247zM654.086 479.392c2.265-10.134 3.437-20.627 3.437-31.392 0-80.318-65.204-145.523-145.523-145.523-10.764 0-21.258 1.171-31.392 3.437l173.478 173.478zM587.252 572.551c20.148-12.206 37.106-29.164 49.299-49.299l-199.803-199.803c-20.148 12.206-37.106 29.164-49.299 49.299l199.803 199.803zM369.914 416.608c-2.265 10.134-3.437 20.627-3.437 31.392 0 80.318 65.204 145.523 145.523 145.523 10.764 0 21.258-1.171 31.392-3.437l-173.478-173.478z" />
<glyph unicode="&#xe937;" glyph-name="day-night" d="M1024 117.805c-82.579-80.871-212.201-99.783-316.355-38.183-124.375 73.56-165.63 234.258-92.070 358.633 64.266 108.655 195.027 153.874 309.977 114.512-61.747-11.031-118.477-47.882-152.871-106.033-62.743-106.086-27.558-243.155 78.529-305.897 54.182-32.043 116.445-38.543 172.79-23.032zM748.618 892.097c14.537-3.277 22.88-19.513 15.892-33.501l-482.39-835.527c-11.452-17.33-20.455-12.82-28.34-9.462-11.579 4.936-16.638 20.058-10.678 31.99l482.39 835.527c7.43 11.244 8.802 12.419 23.126 10.973zM303.952 315.404c-61.526 36.88-102.662 104.342-102.662 181.338 0 117.002 94.994 211.993 211.997 211.993 37.171 0 72.118-9.585 102.466-26.485l-211.8-366.846zM433.897 890.237v-93.692c-0.385-18.031-28.234-28.623-38.605-10.052-1.704 3.047-2.544 6.5-2.617 10.052v93.692c0.074 3.58 0.43 4.76 1.176 6.865 2.851 8.069 9.716 13.541 19.436 13.746 0.291-0.008 0.582-0.012 0.872-0.020 3.219-0.205 4.182-0.516 5.992-1.155 7.954-2.814 13.386-9.527 13.746-19.436zM202.027 305.345c15.954-0.856 26.259-22.299 13.836-35.172l-66.249-66.249c-14.623-14.111-50.5 7.021-29.147 29.151l66.249 66.245c1.724 1.667 2.294 2.036 3.432 2.769 3.518 2.261 5.943 3.363 11.878 3.256zM135.778 795.582c2.392-0.127 3.052-0.295 4.362-0.627 3.551-0.905 6.795-2.81 9.474-5.399l66.249-66.245c12.394-12.845-0.131-40.301-20.382-34.353-3.281 0.963-6.263 2.789-8.765 5.202l-66.249 66.249c-11.448 11.862-5.124 35.537 15.311 35.172zM113.48 476.131h-93.688c-18.035 0.381-28.627 28.23-10.056 38.605 3.047 1.7 6.5 2.54 10.056 2.617 31.519 0 63.050 0.651 94.564-0.020 17.895-1.139 27.558-30.36 7.614-39.375-2.65-1.196-5.534-1.765-8.491-1.827z" />
<glyph unicode="&#xe938;" glyph-name="day" d="M512.954 142.828c3.912-0.25 5.177-0.692 7.447-1.606 8.368-3.363 13.906-10.539 14.127-20.902v-102.4c-0.418-19.71-30.855-31.285-42.197-10.985-1.86 3.326-2.777 7.098-2.859 10.985v102.4c0.082 3.916 0.471 5.202 1.286 7.504 3.113 8.815 10.621 14.799 21.242 15.024 0.319-0.008 0.639-0.012 0.954-0.020zM744.509 238.809c5.747-0.307 10.179-1.81 15.122-6.582l72.409-72.409c15.426-15.987-7.672-55.198-31.859-31.859l-72.409 72.405c-12.558 13.017-5.64 38.842 16.736 38.445zM281.1 238.809c17.437-0.934 28.701-24.371 15.122-38.445l-72.405-72.405c-15.987-15.426-55.198 7.672-31.859 31.859l72.405 72.409c1.884 1.815 2.511 2.224 3.752 3.019 3.85 2.474 6.5 3.678 12.984 3.564zM512 679.707c127.881 0 231.707-103.825 231.707-231.707s-103.825-231.707-231.707-231.707c-127.881 0-231.707 103.825-231.707 231.707s103.825 231.707 231.707 231.707zM942.080 425.472h-102.4c-20.173 0.43-31.080 33.202-9.277 43.057 2.892 1.307 6.046 1.929 9.277 1.999 34.451 0 68.911 0.713 103.354-0.020 22.065-1.405 32.137-44.331-0.954-45.036zM184.32 425.472h-102.4c-19.71 0.418-31.285 30.855-10.985 42.197 3.326 1.86 7.098 2.777 10.985 2.859 34.451 0 68.911 0.713 103.354-0.020 19.562-1.245 30.126-33.182 8.323-43.037-2.892-1.307-6.046-1.929-9.277-1.999zM208.691 774.627c2.613-0.143 3.338-0.324 4.768-0.688 3.883-0.991 7.426-3.068 10.359-5.898l72.405-72.405c13.545-14.041-0.143-44.044-22.274-37.548-3.588 1.057-6.849 3.047-9.585 5.685l-72.405 72.409c-12.513 12.964-5.603 38.842 16.732 38.445zM816.914 774.627c17.347-0.93 28.955-24.113 15.127-38.445l-72.409-72.409c-15.974-15.413-55.194 7.676-31.859 31.863l72.409 72.405c1.884 1.819 2.511 2.224 3.752 3.023 3.846 2.474 6.484 3.678 12.98 3.564zM512.954 900.588c3.523-0.225 4.571-0.565 6.55-1.266 8.819-3.117 14.799-10.621 15.024-21.242v-102.4c-0.418-19.71-30.855-31.285-42.197-10.985-1.86 3.326-2.777 7.098-2.859 10.985v102.4c0.082 3.916 0.471 5.202 1.286 7.504 3.117 8.819 10.621 14.799 21.242 15.024 0.319-0.008 0.639-0.012 0.954-0.020z" />
<glyph unicode="&#xe939;" glyph-name="night" d="M865.78 367.227c-40.198-150.057-177.209-260.628-339.845-260.628-194.216 0-351.891 157.68-351.891 351.891 0 169.665 120.332 311.443 280.244 344.56-63.885-55.009-104.301-136.454-104.301-227.262 0-165.655 134.492-300.143 300.143-300.143 84.607 0 161.083 35.082 215.65 91.582z" />
<glyph unicode="&#xe93a;" glyph-name="close-thin" d="M65.462 928.063c5.845-1.118 9.118-1.348 17.035-8.446l901.12-901.12c16.196-18.055 3.74-51.519-21.864-50.823-5.382 0.143-10.691 1.774-15.229 4.674-2.421 1.548-2.892 2.126-5.022 4.035l-901.12 901.12c-17.068 19.030-3.113 52.859 25.080 50.561zM964.977 928.24c22.77-3.101 35.729-31.687 18.641-50.737l-901.12-901.12c-2.13-1.909-2.601-2.486-5.022-4.035-19.468-12.444-51.266 6.82-44.933 32.281 1.29 5.194 4.178 9.785 7.84 13.869l901.12 901.12c10.22 9.163 13.435 8.892 23.474 8.622z" />
<glyph unicode="&#xe93b;" glyph-name="tool-group-indicator" d="M745.103 407.437l-0.139-0.184-392.061-430.518c-20.472-22.483-53.645-22.561-74.027-0.18-20.386 22.385-20.312 58.81 0.16 81.289l355.303 390.156-355.303 390.156c-20.472 22.479-20.546 58.905-0.16 81.289 20.382 22.381 53.555 22.303 74.027-0.18l392.225-430.723 6.566-8.835c5.267-8.729 8.131-18.686 8.417-28.774l0.254-2.867-0.004-0.066 0.004-0.066-0.254-2.867c-0.319-10.093-3.146-20.062-8.417-28.774l-0.008-0.012-1.925-2.585-4.633-6.238-0.025-0.020z" />
<glyph unicode="&#xe93c;" glyph-name="arrow-light-right-halt" d="M1003.52 857.928v-819.855c0-22.249-18.063-40.309-40.313-40.309s-40.309 18.059-40.309 40.309v819.855c0 22.249 18.059 40.309 40.309 40.309 22.225 0 40.276-18.022 40.313-40.309zM757.797 448c0-10.334-3.932-20.652-11.796-28.516l-409.924-409.924c-15.733-15.733-41.275-15.733-57.008 0s-15.733 41.279 0 57.008l381.428 381.432-381.428 381.432c-15.733 15.729-15.733 41.275 0 57.008s41.275 15.733 57.008 0l409.924-409.924c7.864-7.864 11.796-18.182 11.796-28.516z" />
<glyph unicode="&#xe93d;" glyph-name="publish-thin" d="M512 919.040c-259.973 0-471.040-211.067-471.040-471.040s211.067-471.040 471.040-471.040c259.973 0 471.040 211.067 471.040 471.040s-211.067 471.040-471.040 471.040zM512 870.207c233.026 0 422.207-189.182 422.207-422.207s-189.182-422.207-422.207-422.207c-233.026 0-422.207 189.182-422.207 422.207s189.182 422.207 422.207 422.207zM541.868 208.384h-59.736v371.835l-164.561-148.451-40.014 44.356 234.443 211.493 234.443-211.493-40.014-44.356-164.561 148.451v-371.835z" />
<glyph unicode="&#xe93e;" glyph-name="booths" d="M840.446 902.959c65.036-0.631 125.571-56.926 126.157-126.173 0.795-218.989 0.795-437.977 0-656.966-0.553-65.208-56.783-125.084-125.342-126.161-219.259-2.126-438.538-0.672-657.805-0.008-65.208 0.631-125.489 56.865-126.161 126.157-0.659 218.997-0.659 437.993 0 656.99 0.635 65.52 57.25 125.493 126.161 126.161 218.997 0.659 437.993 0.659 656.99 0zM511.963 426.734l280.453-280.453c2.839-2.462 6.095-4.17 9.691-4.428 13.066-0.934 20.132 16.454 11.87 25.989l-280.453 280.453 280.453 280.453c8.188 9.449 2.97 22.594-7.541 25.678-6.029 0.868-7.090 1.892-14.021-4.116l-280.453-280.453-280.453 280.453c-4.059 3.518-2.486 3.391-9.695 4.428-14.5 0-20.111-16.474-11.866-25.989l280.453-280.453-280.453-280.453c-2.462-2.839-4.17-6.099-4.428-9.695-0.934-13.062 16.454-20.128 25.989-11.866l280.453 280.453z" />
<glyph unicode="&#xe93f;" glyph-name="info" d="M512 939.52c-271.278 0-491.52-220.242-491.52-491.52s220.242-491.52 491.52-491.52c271.278 0 491.52 220.242 491.52 491.52s-220.242 491.52-491.52 491.52zM512 884.756c241.054 0 436.756-195.703 436.756-436.756s-195.703-436.756-436.756-436.756c-241.054 0-436.756 195.703-436.756 436.756s195.703 436.756 436.756 436.756zM385.024 214.528h78.021c0 0 0 195.564 0 261.337 0 11.756-9.531 21.287-21.287 21.287h-56.734v49.152h184.123v-331.776h78.021v-65.536h-262.144v65.536zM512 749.056c36.061 0 65.339-29.274 65.339-65.339 0-36.061-29.278-65.335-65.339-65.335s-65.339 29.274-65.339 65.335c0 36.065 29.278 65.339 65.339 65.339z" />
<glyph unicode="&#xe940;" glyph-name="bold" d="M335.38 532.578v207.716h182.837c17.416 0 34.206-1.45 50.377-4.354 16.167-2.9 30.47-8.086 42.91-15.548s22.389-17.826 29.852-31.093c7.463-13.267 11.194-30.265 11.194-50.995 0-37.315-11.194-64.266-33.583-80.851-22.389-16.581-50.995-24.875-85.823-24.875h-197.763zM140.104 892.039v-888.078h430.354c39.801 0 78.569 4.977 116.298 14.926s71.311 25.289 100.749 46.023c29.434 20.73 52.859 47.469 70.275 80.224 17.412 32.752 26.116 71.52 26.116 116.294 0 55.558-13.472 103.031-40.423 142.418-26.948 39.387-67.785 66.957-122.511 82.715 39.801 19.071 69.857 43.532 90.173 73.384s30.474 67.166 30.474 111.94c0 41.464-6.84 76.288-20.525 104.481-13.681 28.193-32.961 50.79-57.836 67.789s-54.727 29.229-89.555 36.692c-34.824 7.463-73.384 11.194-115.671 11.194h-417.919zM335.38 155.705v243.786h212.689c42.291 0 76.288-9.744 101.994-29.229 25.702-19.485 38.556-52.031 38.556-97.64 0-23.216-3.936-42.287-11.817-57.213-7.877-14.926-18.448-26.743-31.715-35.451-13.267-8.704-28.606-14.926-46.023-18.657-17.412-3.731-35.656-5.595-54.727-5.595h-208.957z" />
<glyph unicode="&#xe941;" glyph-name="italic" d="M526.303 892.039l-186.569-888.078h118.161l186.569 888.078h-118.161z" />
<glyph unicode="&#xe942;" glyph-name="normalize-rows" d="M766.824 391.721c53.4-0.508 104.714-35.336 124.609-84.857 21.688-53.981 3.482-121.283-42.693-157.131-23.212-18.022-52.392-28.062-81.916-28.34-169.882-0.541-339.767-0.541-509.649 0-53.4 0.508-104.714 35.34-124.609 84.857-21.688 53.981-3.482 121.283 42.693 157.131 23.212 18.022 52.392 28.062 81.916 28.34 169.882 0.541 339.767 0.541 509.649 0zM258.109 346.337c-45.634-0.127-87.699-39.645-89.752-85.709-2.126-47.78 38.556-93.356 89.1-93.848 169.886-0.475 339.78-1.655 509.653 0.004 47.833 0.77 90.69 45.044 88.531 93.852-1.995 45.023-41.845 85.238-89.1 85.697-169.476 0.471-338.952 0.004-508.432 0.004zM766.824 775.676c53.4-0.508 104.714-35.336 124.609-84.857 21.688-53.981 3.482-121.283-42.693-157.131-23.212-18.022-52.392-28.062-81.916-28.34-169.882-0.541-339.767-0.541-509.649 0-57.647 0.549-112.263 41.382-128.7 96.58-13.443 45.15-1.106 96.952 31.191 131.236 24.936 26.468 60.658 42.164 97.509 42.512 169.882 0.541 339.767 0.541 509.649 0zM258.126 730.292c-45.781-0.16-87.716-39.641-89.768-85.709-2.126-47.784 38.728-93.393 89.1-93.848 169.89-0.594 339.788-1.536 509.669 0.004 48.21 0.774 91.566 46.129 88.42 95.568-2.839 44.605-42.619 83.984-89.674 83.984-169.251 0-338.498 0-507.748 0zM536.49 121.029v-95.982h-48.976v95.982l24.486-0.041 24.49 0.041zM898.56 281.043h125.44v-48.972h-126.022c3.109 16.208 3.424 32.911 0.582 48.972zM126.022 281.043c-3.109-16.208-3.424-32.911-0.582-48.972h-125.436v48.972h126.018zM536.49 504.984v-112.894l-24.49 0.037-24.486-0.037v112.894l24.486-0.041 24.49 0.041zM898.736 663.929h125.264v-48.972h-126.267c3.256 16.151 3.711 32.842 1.004 48.972zM125.854 663.929c-3.002-16.167-3.203-32.829-0.233-48.972h-125.616v48.972h125.85zM536.49 776.040l-24.49 0.041-24.486-0.041v94.913h48.976v-94.913z" />
<glyph unicode="&#xe943;" glyph-name="straighten" d="M766.824 391.721c53.4-0.508 104.714-35.336 124.609-84.857 21.688-53.981 3.482-121.283-42.693-157.131-23.212-18.022-52.392-28.062-81.916-28.34-169.882-0.541-339.767-0.541-509.649 0-53.4 0.508-104.714 35.34-124.609 84.857-21.688 53.981-3.482 121.283 42.693 157.131 23.212 18.022 52.392 28.062 81.916 28.34 169.882 0.541 339.767 0.541 509.649 0zM258.109 346.337c-45.634-0.127-87.712-39.633-89.752-85.701-2.109-47.722 38.547-93.364 89.1-93.856 169.886-0.475 339.78-1.651 509.653 0.004 48.402 0.778 91.566 46.375 88.437 95.568-2.839 44.618-42.68 83.984-89.657 83.984-169.259 0-338.518 0-507.781 0zM766.824 775.676c53.4-0.508 104.714-35.336 124.609-84.857 21.688-53.981 3.482-121.283-42.693-157.131-23.212-18.022-52.392-28.062-81.916-28.34-169.882-0.541-339.767-0.541-509.649 0-53.4 0.508-104.714 35.336-124.609 84.857-21.688 53.981-3.482 121.283 42.693 157.131 23.212 18.022 52.392 28.062 81.916 28.34 169.882 0.541 339.767 0.541 509.649 0zM258.126 730.292c-45.781-0.16-87.728-39.666-89.768-85.701-2.114-47.813 38.724-93.401 89.1-93.856 169.89-0.594 339.788-1.536 509.669 0.004 45.466 0.729 86.798 40.378 88.535 86.27 1.798 47.518-38.392 92.819-89.121 93.278-169.472 0.59-338.944 0.004-508.416 0.004zM126.022 281.043c-3.109-16.208-3.424-32.911-0.582-48.972h-125.436v48.972h126.018zM1024 232.071h-126.022c3.109 16.208 3.424 32.911 0.582 48.972h125.44v-48.972zM125.854 663.929c-3.002-16.167-3.203-32.829-0.233-48.972h-125.616v48.972h125.85zM1024 614.957h-126.267c3.256 16.151 3.711 32.842 1.004 48.972h125.264v-48.972z" />
<glyph unicode="&#xe944;" glyph-name="space-evenly" d="M766.824 316.047c53.4-0.508 104.714-35.34 124.609-84.861 21.688-53.981 3.482-121.278-42.693-157.131-23.212-18.022-52.392-28.062-81.916-28.34-169.882-0.541-339.767-0.541-509.649 0-57.647 0.549-112.263 41.382-128.7 96.58-13.443 45.154-1.106 96.956 31.191 131.236 24.936 26.468 60.658 42.164 97.509 42.516 169.882 0.537 339.767 0.537 509.649 0zM258.126 270.66c-45.462-0.16-87.409-39.145-89.739-85.127-2.425-47.813 37.822-93.966 89.072-94.429 169.89-0.59 339.788-1.532 509.669 0.004 48.226 0.774 91.251 46.039 88.453 94.999-2.564 44.859-42.652 84.554-89.706 84.554-169.251 0-338.498 0-507.748 0zM766.824 850.248c53.4-0.508 104.714-35.34 124.609-84.857 21.688-53.981 3.482-121.283-42.693-157.131-23.212-18.026-52.392-28.062-81.916-28.344-169.882-0.537-339.767-0.537-509.649 0-53.4 0.508-104.714 35.34-124.609 84.857-21.688 53.985-3.482 121.283 42.693 157.135 23.212 18.022 52.392 28.058 81.916 28.34 169.882 0.541 339.767 0.541 509.649 0zM258.126 804.86c-45.781-0.156-87.728-39.662-89.768-85.697-2.109-47.653 38.314-93.36 89.117-93.856 169.882-0.594 339.775-1.655 509.653 0.004 43.004 0.659 82.731 35.754 87.949 78.864 6.005 49.578-35.258 100.684-89.203 100.684-169.251 0.004-338.498 0-507.748 0zM912.626 425.722v-44.515h-801.3v44.515h801.3zM912.626 514.757v-44.515h-801.3v44.515h801.3z" />
<glyph unicode="&#xe945;" glyph-name="align-center" d="M799.592 391.721c53.4-0.508 104.714-35.336 124.609-84.857 21.688-53.981 3.482-121.283-42.693-157.131-23.212-18.022-52.392-28.062-81.916-28.34-191.726-0.61-383.459-0.61-575.185 0-53.4 0.508-104.714 35.34-124.609 84.857-21.688 53.981-3.482 121.283 42.693 157.131 23.212 18.022 52.392 28.062 81.916 28.34 191.726 0.61 383.459 0.61 575.185 0zM225.35 344.682c-44.536-0.135-85.787-38.433-88.076-83.558-2.38-46.825 37.274-92.197 87.437-92.688 191.713-0.578 383.443-1.88 575.152 0.004 44.638 0.709 85.201 39.662 86.917 84.685 1.761 46.359-37.458 90.763-86.901 91.55-191.5 1.737-383.017 0.008-574.53 0.008zM664.424 775.676c57.647-0.549 112.263-41.382 128.7-96.58 13.443-45.15 1.106-96.952-31.191-131.236-24.936-26.468-60.658-42.164-97.509-42.512-101.614-0.324-203.235-0.324-304.849 0-53.4 0.508-104.714 35.336-124.609 84.857-21.688 53.981-3.482 121.283 42.693 157.131 23.212 18.022 52.392 28.062 81.916 28.34 101.614 0.324 203.235 0.324 304.849 0zM360.509 734.917c-47.735-0.147-91.881-41.132-94.343-89.522-2.564-50.422 40.010-98.763 93.671-99.287 101.642-0.311 203.297-0.983 304.935 0.008 48.824 0.778 93.184 44.577 93.184 94.396 0 49.021-42.807 94.405-94.466 94.405-100.995 0-201.986 0-302.981 0zM536.49 121.389v-118.604h-48.976v118.604h48.976zM536.49 391.725h-48.976v113.619h48.976v-113.619zM536.49 775.68h-48.976v117.535h48.976v-117.535z" />
<glyph unicode="&#xe946;" glyph-name="arrow-medium-down" d="M512 212.697c-16.249-0.004-32.485 6.185-44.859 18.563l-376.558 376.553c-24.752 24.752-24.752 64.946 0 89.694 24.752 24.752 64.942 24.752 89.694 0l331.723-331.723 331.723 331.723c24.752 24.752 64.942 24.752 89.694 0 24.752-24.748 24.752-64.942 0-89.694l-376.558-376.553c-12.374-12.378-28.611-18.567-44.859-18.563z" />
<glyph unicode="&#xe947;" glyph-name="align-left" d="M799.592 391.721c53.4-0.508 104.714-35.336 124.609-84.857 21.688-53.981 3.482-121.283-42.693-157.131-23.212-18.022-52.392-28.062-81.916-28.34-191.726-0.61-383.459-0.61-575.185 0-57.647 0.549-112.263 41.382-128.7 96.58-13.443 45.15-1.106 96.952 31.191 131.236 24.936 26.468 60.658 42.164 97.509 42.512 191.726 0.61 383.459 0.61 575.185 0zM225.35 344.682c-44.851-0.139-85.799-38.638-88.076-83.558-2.388-47.043 37.392-92.197 87.437-92.688 191.713-0.578 383.443-1.88 575.152 0.004 38.814 0.618 75.227 29.299 84.472 67.142 10.342 42.32-15.929 90.44-57.377 104.481-9.105 3.084-18.698 4.62-28.307 4.62-191.099 0-382.202 0-573.301 0zM529.256 775.676c57.647-0.549 112.263-41.382 128.7-96.58 13.443-45.15 1.106-96.952-31.191-131.236-24.936-26.468-60.658-42.164-97.509-42.512-101.614-0.324-203.235-0.324-304.849 0-53.4 0.508-104.714 35.336-124.609 84.857-21.688 53.981-3.482 121.283 42.693 157.131 23.212 18.022 52.392 28.062 81.916 28.34 101.614 0.324 203.235 0.324 304.849 0zM225.341 734.917c-47.722-0.147-91.881-41.136-94.343-89.522-2.552-50.217 39.748-98.759 93.671-99.287 101.642-0.311 203.297-0.983 304.935 0.008 50.156 0.799 95.371 47.473 93.090 98.669-2.109 47.309-43.45 89.641-93.7 90.132-101.216 0.311-202.433 0-303.653 0zM225.28 121.389h40.874v-118.604h-48.976v119.013l8.102-0.41zM225.28 505.344h40.874v-113.619h-40.874l-8.102-0.41v114.438l8.102-0.41zM266.154 775.68h-40.874l-8.102-0.41v117.944h48.976v-117.535z" />
<glyph unicode="&#xe948;" glyph-name="align-right" d="M799.592 391.721c57.647-0.549 112.263-41.382 128.7-96.58 13.443-45.15 1.106-96.952-31.191-131.236-24.936-26.468-60.658-42.164-97.509-42.512-191.726-0.61-383.459-0.61-575.185 0-57.647 0.549-112.263 41.382-128.7 96.58-13.443 45.15-1.106 96.952 31.191 131.236 24.936 26.468 60.658 42.164 97.509 42.512 191.726 0.61 383.459 0.61 575.185 0zM225.35 344.682c-44.851-0.139-85.799-38.638-88.076-83.558-2.396-47.174 38.162-92.205 87.437-92.688 191.713-0.578 383.443-1.88 575.152 0.004 39.010 0.623 75.559 29.626 84.599 67.67 10.027 42.189-16.212 89.96-57.504 103.952-9.105 3.084-18.698 4.62-28.307 4.62-191.099 0-382.202 0-573.301 0zM799.592 775.676c53.4-0.508 104.714-35.336 124.609-84.857 21.688-53.981 3.482-121.283-42.693-157.131-23.212-18.022-52.392-28.062-81.916-28.34-101.614-0.324-203.235-0.324-304.849 0-53.4 0.508-104.714 35.336-124.609 84.857-21.688 53.981-3.482 121.283 42.693 157.131 23.212 18.022 52.392 28.062 81.916 28.34 101.614 0.324 203.235 0.324 304.849 0zM495.677 734.917c-48.013-0.147-92.242-41.705-94.372-90.112-2.2-50.053 40.026-97.845 93.090-98.689 101.843-0.995 203.702-0.995 305.545 0 49.172 0.782 93.184 44.823 93.184 94.396 0 48.919-42.824 94.405-94.466 94.405-100.995 0-201.986 0-302.981 0zM798.72 121.389h-40.874v-118.604h48.976v119.013l-8.102-0.41zM798.72 505.344h-40.874v-113.619h40.874l8.102-0.41v114.438l-8.102-0.41zM757.846 775.68h40.874l8.102-0.41v117.944h-48.976v-117.535z" />
<glyph unicode="&#xe949;" glyph-name="download" d="M512 919.040c259.973 0 471.040-211.067 471.040-471.040s-211.067-471.040-471.040-471.040c-259.973 0-471.040 211.067-471.040 471.040s211.067 471.040 471.040 471.040zM512 828.928c-210.239 0-380.928-170.689-380.928-380.928s170.689-380.928 380.928-380.928c210.239 0 380.928 170.689 380.928 380.928s-170.689 380.928-380.928 380.928zM469.742 668.312c0 23.335 18.919 42.254 42.254 42.254h0.008c23.335 0 42.254-18.919 42.254-42.254v-323.457c0 0 69.464 69.464 110.158 110.158 7.533 7.533 17.805 11.674 28.455 11.477 10.654-0.197 20.763-4.719 28.013-12.521 0.193-0.209 0.385-0.418 0.582-0.627 13.939-15.016 13.509-38.367-0.979-52.855-42.369-42.369-126.411-126.411-173.83-173.83-9.191-9.191-21.66-14.356-34.656-14.356s-25.465 5.165-34.656 14.356c-47.198 47.198-130.675 130.675-173.232 173.232-14.819 14.819-15.262 38.711-0.999 54.071 0 0.004 0.004 0.004 0.004 0.008 7.25 7.803 17.359 12.325 28.013 12.521 10.65 0.197 20.922-3.944 28.455-11.477 40.694-40.694 110.158-110.158 110.158-110.158v323.457z" />
<glyph unicode="&#xe94a;" glyph-name="foodCourt" d="M357.474 344.986c-40.477-38.855-79.446-75.78-106.914-101.175-49.197-45.482-134.205-91.779-159.019-126.247-17.089-23.732-13.591-58.094 2.953-77.394 16.54-19.3 51.851-36.192 77.394-19.493 35.84 23.437 84.185 113.451 132.342 165.429 37.523 40.501 98.529 104.567 154.178 162.55-29.164 3.547-64.528-1.368-100.934-3.67zM610.501 473.608c8.63-0.233 17.457-1.159 25.833-1.991 24.486-2.425 58.388-5.607 77.14 13.144 62.46 62.46 238.461 284.877 230.478 294.375-12.53 14.909-210.448-219.759-234.439-195.981-27.14 26.89 194.548 235.27 178.541 251.277s-212.079-218.104-244.29-185.905c-20.775 20.767 210.272 222.142 196.87 233.738-9.921 8.577-222.667-161.182-293.020-229.634-15.114-14.705-16.159-45.507-14.733-66.548 0.893-13.238 2.064-25.494 2.118-36.606 22.417-22.688 43.741-44.163 63.623-64.061 3.903-3.912 7.864-7.848 11.878-11.809zM130.245 877.072c-7.75 7.598-20.738-2.429-30.155-18.166-49.869-83.362 171.004-372.609 231.776-432.48 49.865-49.127 133.865 1.118 167.272-31.47 75.354-73.511 258.236-309.055 328.036-368.378 21.996-18.694 57.16-9.433 76.292 9.572 20.177 20.042 39.494 48.46 19.038 72.839-57.324 68.313-262.93 229.536-380.269 346.972-126.734 126.841-357.143 367.309-411.992 421.11z" />
<glyph unicode="&#xe94b;" glyph-name="bar-cocktail" d="M512 425.738l-304.288 361.656c-3.965 4.719-4.846 11.313-2.249 16.908 2.593 5.595 8.192 9.175 14.348 9.175h584.376c6.156 0 11.756-3.58 14.348-9.175 2.597-5.595 1.716-12.19-2.249-16.908l-304.288-361.656zM703.25 713.589l39.444 46.883c1.962 2.335 2.396 5.595 1.114 8.364s-4.051 4.538-7.098 4.538h-449.421c-3.047 0-5.816-1.769-7.098-4.538s-0.848-6.029 1.114-8.364l39.719-47.21 382.226 0.328zM547.746 629.826c-19.726 0-35.746-16.015-35.746-35.746s16.019-35.746 35.746-35.746c19.73 0 35.746 16.015 35.746 35.746s-16.015 35.746-35.746 35.746zM273.535 96.211c0 5.431 2.154 10.637 5.997 14.479s9.052 6.001 14.483 6.001c40.763 0 131.633 0 172.397 0 5.431 0 10.641 2.154 14.483 5.997s5.997 9.048 5.997 14.483c0 76.349 0 340.042 0 340.042h50.217v-340.042c0-5.435 2.154-10.641 5.997-14.483s9.052-5.997 14.483-5.997c40.763 0 131.633 0 172.397 0 5.431 0 10.641-2.159 14.483-6.001s5.997-9.048 5.997-14.479c0-10.818 0-21.881 0-21.881h-476.93v21.881z" />
<glyph unicode="&#xe94c;" glyph-name="wheelchair" d="M675.963 183.632c-49.033-90.472-151.667-150.073-261.145-150.073-160.793 0-291.938 122.401-291.938 272.474 0 105.374 68.424 203.293 170.525 246.698l6.607-80.474c-60.387-35.516-97.616-99.602-97.616-166.777 0-108.868 95.134-197.657 211.78-197.657 106.713 0 197.714 76.435 210.121 174.494l51.667-98.685zM383.767 714.949c40.202 3.461 71.438 35.791 71.438 73.601 0 40.698-35.566 73.892-79.172 73.892s-79.167-33.194-79.167-73.892c0-12.411 3.711-25.113 9.896-35.791l28.209-370.475 290.533-0.074 119.161-260.596 156.455 57.266-24.228 53.842-87.556-29.499-115.298 248.443-270.131-1.696-3.711 46.92 195.555-0.074v69.423l-203.014 0.074-8.97 148.636z" />
<glyph unicode="&#xe94d;" glyph-name="stage" d="M847.548 205.636c2.523-7.229 3.83-14.631 3.83-22.163 0-81.211-152.068-147.141-339.378-147.141s-339.378 65.929-339.378 147.141c0 7.119 1.167 14.123 3.424 20.972h-0.131l161.616 603.242c6.922 25.829 30.331 43.79 57.074 43.79h234.787c26.743 0 50.156-17.965 57.070-43.799l161.21-602.042h-0.123zM512 295.768c-153.285 0-277.733-45.916-277.733-102.474s124.449-102.474 277.733-102.474c153.285 0 277.733 45.916 277.733 102.474s-124.449 102.474-277.733 102.474z" />
<glyph unicode="&#xe94e;" glyph-name="restrooms-unisex" d="M174.473 54.256c0-24.224 11.85-36.336 35.463-36.336 23.609 0 35.459 12.112 35.459 36.336v327.127h36.336v-327.127c0-24.224 11.85-36.336 35.459-36.336 23.613 0 35.459 12.112 35.459 36.336v557.261h17.293v-200.733c0-12.726 4.301-21.942 12.988-27.648 8.692-5.792 17.555-5.792 26.857 0 9.216 5.796 13.869 15.012 13.869 27.648v216.359c0 23.081-7.811 40.989-23.347 53.629-15.536 12.726-37.216 19.046-64.864 19.046h-141.926c-26.505 0-48.185-5.796-64.86-17.293-16.765-11.497-25.104-29.401-25.104-53.629v-230.224c0-10.355 4.653-17.904 13.869-22.471 9.216-4.649 18.17-4.649 26.857 0 8.688 4.653 12.988 12.116 12.988 22.471v212.845h17.293v-557.261h-0.090zM882.352 319.062l-103.834 287.277c-1.143 1.143-1.757 2.281-1.757 3.424 0 5.792 2.896 8.688 8.692 8.688 3.42 0 5.792-2.281 6.935-6.935l70.918-185.197c5.792-12.726 18.432-19.046 38.093-19.046 6.935 0 11.85 5.177 14.746 15.536s4.301 17.289 4.301 20.804l-72.675 178.262c-2.281 21.942-12.726 40.374-31.158 55.382-18.432 15.012-39.85 22.471-64.074 22.471h-91.722c-24.224 0-45.904-7.811-64.864-23.347-19.046-15.536-30.278-33.792-33.792-54.505l-67.494-180.019c-2.281-3.424-1.757-10.093 1.753-19.923 3.424-9.83 8.692-14.746 15.536-14.746 21.942 0 34.583 5.792 38.093 17.289l69.251 186.954c1.143 3.424 3.424 5.177 6.935 5.177 4.653 0 6.935-2.281 6.935-6.935v-1.753l-102.167-288.858v-22.467c0-2.281 2.896-6.32 8.692-12.112 5.792-5.796 9.83-8.692 12.112-8.692h65.741v-223.289c0-9.216 3.772-17.293 11.235-24.224 7.549-6.935 15.884-10.359 25.1-10.359s17.293 3.424 24.228 10.359c6.93 6.93 10.355 15.008 10.355 24.224v231.981c0 1.139 3.162 2.015 9.478 2.63 6.32 0.614 12.378 0.614 18.17 0s8.692-1.401 8.692-2.63v-230.228c0-9.216 3.42-17.551 10.355-25.1 6.935-7.463 15.274-11.235 25.104-11.235s18.166 3.772 25.1 11.235c6.935 7.459 10.359 15.884 10.359 25.1v221.536h67.494c3.424 0 7.463 2.896 12.116 8.692 4.649 5.792 6.93 9.83 6.93 12.112v22.467h0.090zM188.342 804.528c0-20.189 7.197-37.478 21.594-51.962 14.393-14.393 31.683-21.59 51.958-21.59 20.189 0 37.478 7.197 51.962 21.59 14.393 14.393 21.59 32.039 21.59 52.752 0 19.661-7.197 36.598-21.59 51.081-14.483 14.483-31.773 21.68-51.962 21.68-20.185 0-37.478-7.197-51.958-21.59-14.397-14.483-21.594-31.777-21.594-51.962zM631.415 804.528c0-20.189 7.197-37.478 21.59-51.962 14.393-14.393 31.687-21.59 51.962-21.59 20.185 0 37.478 7.197 51.958 21.59 14.397 14.393 21.594 31.687 21.594 51.962 0 20.185-7.197 37.478-21.594 51.962-14.479 14.393-31.773 21.59-51.958 21.59-20.189 0-37.478-7.197-51.962-21.59-14.393-14.483-21.59-31.777-21.59-51.962z" />
<glyph unicode="&#xe94f;" glyph-name="restrooms-men" d="M422.867 54.256c0-24.224 11.85-36.336 35.459-36.336 23.613 0 35.463 12.112 35.463 36.336v327.127h36.336v-327.127c0-24.224 11.85-36.336 35.459-36.336s35.459 12.112 35.459 36.336v557.261h17.293v-200.733c0-12.726 4.301-21.942 12.988-27.648 8.692-5.792 17.555-5.792 26.857 0 9.216 5.796 13.869 15.012 13.869 27.648v216.359c0 23.081-7.811 40.989-23.347 53.629-15.536 12.726-37.216 19.046-64.864 19.046h-141.926c-26.505 0-48.185-5.796-64.86-17.293-16.765-11.497-25.104-29.401-25.104-53.629v-230.224c0-10.355 4.653-17.904 13.869-22.471 9.216-4.649 18.166-4.649 26.857 0 8.688 4.653 12.988 12.116 12.988 22.471v212.845h17.293v-557.261h-0.090zM436.736 804.528c0-20.189 7.197-37.478 21.59-51.962 14.397-14.393 31.687-21.59 51.962-21.59 20.189 0 37.478 7.197 51.962 21.59 14.393 14.393 21.59 32.039 21.59 52.752 0 19.661-7.197 36.598-21.59 51.081-14.483 14.483-31.773 21.68-51.962 21.68-20.185 0-37.478-7.197-51.962-21.59-14.393-14.483-21.59-31.777-21.59-51.962z" />
<glyph unicode="&#xe950;" glyph-name="restrooms-women" d="M687.485 319.062l-103.834 287.277c-1.139 1.143-1.753 2.281-1.753 3.424 0 5.792 2.896 8.688 8.688 8.688 3.424 0 5.792-2.281 6.935-6.935l70.918-185.197c5.796-12.726 18.432-19.046 38.093-19.046 6.935 0 11.85 5.177 14.746 15.536s4.301 17.289 4.301 20.804l-72.675 178.262c-2.281 21.942-12.726 40.374-31.158 55.382-18.432 15.012-39.846 22.471-64.074 22.471h-91.718c-24.228 0-45.908-7.811-64.864-23.347-19.046-15.536-30.282-33.792-33.792-54.505l-67.498-180.019c-2.281-3.424-1.753-10.093 1.757-19.923 3.424-9.83 8.688-14.746 15.536-14.746 21.942 0 34.583 5.792 38.093 17.289l69.251 186.954c1.139 3.424 3.424 5.177 6.935 5.177 4.649 0 6.935-2.281 6.935-6.935v-1.753l-102.167-288.858v-22.467c0-2.281 2.896-6.32 8.688-12.112 5.792-5.796 9.83-8.692 12.112-8.692h65.741v-223.289c0-9.216 3.777-17.293 11.235-24.224 7.549-6.935 15.888-10.359 25.104-10.359s17.289 3.424 24.224 10.359c6.935 6.93 10.359 15.008 10.359 24.224v231.981c0 1.139 3.158 2.015 9.478 2.63s12.374 0.614 18.17 0c5.792-0.614 8.688-1.401 8.688-2.63v-230.228c0-9.216 3.424-17.551 10.359-25.1 6.93-7.463 15.27-11.235 25.1-11.235s18.17 3.772 25.104 11.235c6.935 7.459 10.355 15.884 10.355 25.1v221.536h67.498c3.424 0 7.459 2.896 12.112 8.692 4.653 5.792 6.935 9.83 6.935 12.112v22.467h0.086zM436.548 804.528c0-20.189 7.197-37.478 21.59-51.962 14.397-14.393 31.687-21.59 51.962-21.59 20.189 0 37.478 7.197 51.962 21.59 14.393 14.393 21.59 31.687 21.59 51.962 0 20.185-7.197 37.478-21.59 51.962-14.483 14.393-31.773 21.59-51.962 21.59-20.185 0-37.478-7.197-51.962-21.59-14.393-14.483-21.59-31.777-21.59-51.962z" />
<glyph unicode="&#xe951;" glyph-name="stairs" d="M748.823 508.142h-205.545v-182.837h-205.541v-182.837h-268.104v62.558h205.545v182.833h205.545v182.837h205.541v182.837h268.104v-62.558h-205.545v-182.833z" />
</font>
</defs>
</svg>
